<mxfile host="Electron" modified="2023-10-24T16:25:27.212Z" agent="Mozilla/5.0 (X11; Linux x86_64) AppleWebKit/537.36 (KHTML, like Gecko) draw.io/21.5.0 Chrome/112.0.5615.204 Electron/24.5.1 Safari/537.36" etag="JEApl9Utb9coQbCYxmPK" version="21.5.0" type="device">
  <diagram name="Page-1" id="B0mrSx-iZ9Zy58HAbUhM">
    <mxGraphModel dx="664" dy="416" grid="1" gridSize="10" guides="1" tooltips="1" connect="1" arrows="1" fold="1" page="1" pageScale="1" pageWidth="850" pageHeight="1100" math="1" shadow="0">
      <root>
        <mxCell id="0" />
        <mxCell id="1" parent="0" />
        <mxCell id="YlLWyo49fRAyTckj5HUe-43" value="" style="line;strokeWidth=1;html=1;" parent="1" vertex="1">
          <mxGeometry x="80" y="320" width="80" height="10" as="geometry" />
        </mxCell>
        <mxCell id="YlLWyo49fRAyTckj5HUe-44" value="" style="line;strokeWidth=1;html=1;" parent="1" vertex="1">
          <mxGeometry x="80" y="250" width="90" height="10" as="geometry" />
        </mxCell>
        <mxCell id="YlLWyo49fRAyTckj5HUe-42" value="" style="line;strokeWidth=1;html=1;" parent="1" vertex="1">
          <mxGeometry x="80" y="210" width="80" height="10" as="geometry" />
        </mxCell>
        <mxCell id="YlLWyo49fRAyTckj5HUe-5" style="edgeStyle=orthogonalEdgeStyle;rounded=0;orthogonalLoop=1;jettySize=auto;html=1;exitX=0;exitY=0.5;exitDx=0;exitDy=0;exitPerimeter=0;endArrow=none;endFill=0;" parent="1" source="YlLWyo49fRAyTckj5HUe-1" edge="1">
          <mxGeometry relative="1" as="geometry">
            <mxPoint x="50" y="70" as="targetPoint" />
          </mxGeometry>
        </mxCell>
        <mxCell id="YlLWyo49fRAyTckj5HUe-6" style="edgeStyle=orthogonalEdgeStyle;rounded=0;orthogonalLoop=1;jettySize=auto;html=1;exitX=1;exitY=0.5;exitDx=0;exitDy=0;exitPerimeter=0;endArrow=none;endFill=0;" parent="1" source="YlLWyo49fRAyTckj5HUe-1" edge="1">
          <mxGeometry relative="1" as="geometry">
            <mxPoint x="250" y="70" as="targetPoint" />
          </mxGeometry>
        </mxCell>
        <mxCell id="YlLWyo49fRAyTckj5HUe-1" value="" style="verticalLabelPosition=bottom;shadow=0;dashed=0;align=center;html=1;verticalAlign=top;shape=mxgraph.electrical.logic_gates.inverter_2;movable=1;resizable=1;rotatable=1;deletable=1;editable=1;locked=0;connectable=1;" parent="1" vertex="1">
          <mxGeometry x="100" y="40" width="100" height="60" as="geometry" />
        </mxCell>
        <mxCell id="YlLWyo49fRAyTckj5HUe-2" value="" style="endArrow=open;html=1;strokeWidth=1;endSize=11;rounded=0;endFill=0;" parent="1" edge="1">
          <mxGeometry width="100" relative="1" as="geometry">
            <mxPoint x="80" y="69.98999999999998" as="sourcePoint" />
            <mxPoint x="90" y="69.98999999999998" as="targetPoint" />
          </mxGeometry>
        </mxCell>
        <mxCell id="YlLWyo49fRAyTckj5HUe-7" value="" style="endArrow=open;html=1;strokeWidth=1;endSize=11;rounded=0;endFill=0;" parent="1" edge="1">
          <mxGeometry width="100" relative="1" as="geometry">
            <mxPoint x="210" y="69.98999999999998" as="sourcePoint" />
            <mxPoint x="220" y="69.98999999999998" as="targetPoint" />
          </mxGeometry>
        </mxCell>
        <mxCell id="YlLWyo49fRAyTckj5HUe-9" value="&lt;font style=&quot;font-size: 16px;&quot;&gt;\(x\)&lt;/font&gt;" style="text;html=1;strokeColor=none;fillColor=none;align=center;verticalAlign=middle;whiteSpace=wrap;rounded=0;" parent="1" vertex="1">
          <mxGeometry x="50" y="80" width="60" height="20" as="geometry" />
        </mxCell>
        <mxCell id="YlLWyo49fRAyTckj5HUe-10" value="&lt;font style=&quot;font-size: 16px;&quot;&gt;\(\overline{x}\)&lt;/font&gt;" style="text;html=1;strokeColor=none;fillColor=none;align=center;verticalAlign=middle;whiteSpace=wrap;rounded=0;" parent="1" vertex="1">
          <mxGeometry x="180" y="80" width="60" height="20" as="geometry" />
        </mxCell>
        <mxCell id="YlLWyo49fRAyTckj5HUe-11" value="&lt;font style=&quot;font-size: 16px;&quot;&gt;inverter&lt;/font&gt;" style="text;html=1;strokeColor=none;fillColor=none;align=center;verticalAlign=middle;whiteSpace=wrap;rounded=0;fontSize=16;" parent="1" vertex="1">
          <mxGeometry x="100" y="120" width="100" height="20" as="geometry" />
        </mxCell>
        <mxCell id="YlLWyo49fRAyTckj5HUe-13" style="edgeStyle=orthogonalEdgeStyle;rounded=0;orthogonalLoop=1;jettySize=auto;html=1;exitX=0;exitY=0.25;exitDx=0;exitDy=0;exitPerimeter=0;endArrow=none;endFill=0;" parent="1" source="YlLWyo49fRAyTckj5HUe-12" edge="1">
          <mxGeometry relative="1" as="geometry">
            <mxPoint x="310" y="55.0344827586207" as="targetPoint" />
          </mxGeometry>
        </mxCell>
        <mxCell id="YlLWyo49fRAyTckj5HUe-14" style="edgeStyle=orthogonalEdgeStyle;rounded=0;orthogonalLoop=1;jettySize=auto;html=1;exitX=0;exitY=0.75;exitDx=0;exitDy=0;exitPerimeter=0;endArrow=none;endFill=0;" parent="1" source="YlLWyo49fRAyTckj5HUe-12" edge="1">
          <mxGeometry relative="1" as="geometry">
            <mxPoint x="310" y="84.91954022988506" as="targetPoint" />
          </mxGeometry>
        </mxCell>
        <mxCell id="YlLWyo49fRAyTckj5HUe-17" style="edgeStyle=orthogonalEdgeStyle;rounded=0;orthogonalLoop=1;jettySize=auto;html=1;exitX=1;exitY=0.5;exitDx=0;exitDy=0;exitPerimeter=0;endArrow=none;endFill=0;" parent="1" source="YlLWyo49fRAyTckj5HUe-12" edge="1">
          <mxGeometry relative="1" as="geometry">
            <mxPoint x="510" y="69.94444444444446" as="targetPoint" />
          </mxGeometry>
        </mxCell>
        <mxCell id="YlLWyo49fRAyTckj5HUe-12" value="" style="verticalLabelPosition=bottom;shadow=0;dashed=0;align=center;html=1;verticalAlign=top;shape=mxgraph.electrical.logic_gates.logic_gate;operation=or;" parent="1" vertex="1">
          <mxGeometry x="360" y="40" width="100" height="60" as="geometry" />
        </mxCell>
        <mxCell id="YlLWyo49fRAyTckj5HUe-15" value="" style="endArrow=open;html=1;strokeWidth=1;endSize=11;rounded=0;endFill=0;" parent="1" edge="1">
          <mxGeometry width="100" relative="1" as="geometry">
            <mxPoint x="340" y="54.999999999999986" as="sourcePoint" />
            <mxPoint x="350" y="54.999999999999986" as="targetPoint" />
          </mxGeometry>
        </mxCell>
        <mxCell id="YlLWyo49fRAyTckj5HUe-16" value="" style="endArrow=open;html=1;strokeWidth=1;endSize=11;rounded=0;endFill=0;" parent="1" edge="1">
          <mxGeometry width="100" relative="1" as="geometry">
            <mxPoint x="340" y="84.99999999999999" as="sourcePoint" />
            <mxPoint x="350" y="84.99999999999999" as="targetPoint" />
          </mxGeometry>
        </mxCell>
        <mxCell id="YlLWyo49fRAyTckj5HUe-18" value="" style="endArrow=open;html=1;strokeWidth=1;endSize=11;rounded=0;endFill=0;" parent="1" edge="1">
          <mxGeometry width="100" relative="1" as="geometry">
            <mxPoint x="470" y="69.92999999999998" as="sourcePoint" />
            <mxPoint x="480" y="69.92999999999998" as="targetPoint" />
          </mxGeometry>
        </mxCell>
        <mxCell id="YlLWyo49fRAyTckj5HUe-19" value="&lt;font style=&quot;font-size: 16px;&quot;&gt;\(x\)&lt;/font&gt;" style="text;html=1;strokeColor=none;fillColor=none;align=center;verticalAlign=middle;whiteSpace=wrap;rounded=0;" parent="1" vertex="1">
          <mxGeometry x="310" y="20" width="60" height="30" as="geometry" />
        </mxCell>
        <mxCell id="YlLWyo49fRAyTckj5HUe-21" value="&lt;font style=&quot;font-size: 16px;&quot;&gt;\(y\)&lt;/font&gt;" style="text;html=1;strokeColor=none;fillColor=none;align=center;verticalAlign=middle;whiteSpace=wrap;rounded=0;" parent="1" vertex="1">
          <mxGeometry x="310" y="90" width="60" height="20" as="geometry" />
        </mxCell>
        <mxCell id="YlLWyo49fRAyTckj5HUe-22" value="&lt;font style=&quot;font-size: 16px;&quot;&gt;\(x + y\)&lt;/font&gt;" style="text;html=1;strokeColor=none;fillColor=none;align=center;verticalAlign=middle;whiteSpace=wrap;rounded=0;" parent="1" vertex="1">
          <mxGeometry x="460" y="30" width="60" height="40" as="geometry" />
        </mxCell>
        <mxCell id="YlLWyo49fRAyTckj5HUe-23" value="OR gate" style="text;html=1;strokeColor=none;fillColor=none;align=center;verticalAlign=middle;whiteSpace=wrap;rounded=0;fontSize=16;" parent="1" vertex="1">
          <mxGeometry x="360" y="120" width="100" height="20" as="geometry" />
        </mxCell>
        <mxCell id="YlLWyo49fRAyTckj5HUe-25" style="edgeStyle=orthogonalEdgeStyle;rounded=0;orthogonalLoop=1;jettySize=auto;html=1;exitX=0;exitY=0.25;exitDx=0;exitDy=0;exitPerimeter=0;endArrow=none;endFill=0;" parent="1" source="YlLWyo49fRAyTckj5HUe-24" edge="1">
          <mxGeometry relative="1" as="geometry">
            <mxPoint x="570" y="54.94444444444446" as="targetPoint" />
          </mxGeometry>
        </mxCell>
        <mxCell id="YlLWyo49fRAyTckj5HUe-26" style="edgeStyle=orthogonalEdgeStyle;rounded=0;orthogonalLoop=1;jettySize=auto;html=1;exitX=0;exitY=0.75;exitDx=0;exitDy=0;exitPerimeter=0;endArrow=none;endFill=0;" parent="1" source="YlLWyo49fRAyTckj5HUe-24" edge="1">
          <mxGeometry relative="1" as="geometry">
            <mxPoint x="570" y="84.94444444444446" as="targetPoint" />
          </mxGeometry>
        </mxCell>
        <mxCell id="YlLWyo49fRAyTckj5HUe-27" style="edgeStyle=orthogonalEdgeStyle;rounded=0;orthogonalLoop=1;jettySize=auto;html=1;exitX=1;exitY=0.5;exitDx=0;exitDy=0;exitPerimeter=0;endArrow=none;endFill=0;" parent="1" source="YlLWyo49fRAyTckj5HUe-24" edge="1">
          <mxGeometry relative="1" as="geometry">
            <mxPoint x="770" y="69.94444444444446" as="targetPoint" />
          </mxGeometry>
        </mxCell>
        <mxCell id="YlLWyo49fRAyTckj5HUe-24" value="" style="verticalLabelPosition=bottom;shadow=0;dashed=0;align=center;html=1;verticalAlign=top;shape=mxgraph.electrical.logic_gates.logic_gate;operation=and;" parent="1" vertex="1">
          <mxGeometry x="620" y="40" width="100" height="60" as="geometry" />
        </mxCell>
        <mxCell id="YlLWyo49fRAyTckj5HUe-28" value="&lt;font style=&quot;font-size: 16px;&quot;&gt;\(x\)&lt;/font&gt;" style="text;html=1;strokeColor=none;fillColor=none;align=center;verticalAlign=middle;whiteSpace=wrap;rounded=0;" parent="1" vertex="1">
          <mxGeometry x="580" y="20" width="60" height="30" as="geometry" />
        </mxCell>
        <mxCell id="YlLWyo49fRAyTckj5HUe-29" value="&lt;font style=&quot;font-size: 16px;&quot;&gt;\(y\)&lt;/font&gt;" style="text;html=1;strokeColor=none;fillColor=none;align=center;verticalAlign=middle;whiteSpace=wrap;rounded=0;" parent="1" vertex="1">
          <mxGeometry x="580" y="90" width="60" height="20" as="geometry" />
        </mxCell>
        <mxCell id="YlLWyo49fRAyTckj5HUe-30" value="" style="endArrow=open;html=1;strokeWidth=1;endSize=11;rounded=0;endFill=0;" parent="1" edge="1">
          <mxGeometry width="100" relative="1" as="geometry">
            <mxPoint x="610" y="84.99999999999999" as="sourcePoint" />
            <mxPoint x="620" y="84.99999999999999" as="targetPoint" />
          </mxGeometry>
        </mxCell>
        <mxCell id="YlLWyo49fRAyTckj5HUe-31" value="" style="endArrow=open;html=1;strokeWidth=1;endSize=11;rounded=0;endFill=0;" parent="1" edge="1">
          <mxGeometry width="100" relative="1" as="geometry">
            <mxPoint x="610" y="54.99999999999998" as="sourcePoint" />
            <mxPoint x="620" y="54.99999999999998" as="targetPoint" />
          </mxGeometry>
        </mxCell>
        <mxCell id="YlLWyo49fRAyTckj5HUe-33" value="" style="endArrow=open;html=1;strokeWidth=1;endSize=11;rounded=0;endFill=0;" parent="1" edge="1">
          <mxGeometry width="100" relative="1" as="geometry">
            <mxPoint x="730" y="69.99999999999997" as="sourcePoint" />
            <mxPoint x="740" y="69.99999999999997" as="targetPoint" />
          </mxGeometry>
        </mxCell>
        <mxCell id="YlLWyo49fRAyTckj5HUe-34" value="&lt;font style=&quot;font-size: 16px;&quot;&gt;\(xy\)&lt;/font&gt;" style="text;html=1;strokeColor=none;fillColor=none;align=center;verticalAlign=middle;whiteSpace=wrap;rounded=0;" parent="1" vertex="1">
          <mxGeometry x="710" y="40" width="60" height="20" as="geometry" />
        </mxCell>
        <mxCell id="YlLWyo49fRAyTckj5HUe-35" value="AND gate" style="text;html=1;strokeColor=none;fillColor=none;align=center;verticalAlign=middle;whiteSpace=wrap;rounded=0;fontSize=16;" parent="1" vertex="1">
          <mxGeometry x="620" y="120" width="100" height="20" as="geometry" />
        </mxCell>
        <mxCell id="YlLWyo49fRAyTckj5HUe-40" style="edgeStyle=orthogonalEdgeStyle;rounded=0;orthogonalLoop=1;jettySize=auto;html=1;exitX=0;exitY=0.25;exitDx=0;exitDy=0;exitPerimeter=0;endArrow=none;endFill=0;" parent="1" source="YlLWyo49fRAyTckj5HUe-37" edge="1">
          <mxGeometry relative="1" as="geometry">
            <mxPoint x="80" y="235" as="targetPoint" />
            <Array as="points">
              <mxPoint x="80" y="235" />
            </Array>
          </mxGeometry>
        </mxCell>
        <mxCell id="YlLWyo49fRAyTckj5HUe-41" style="edgeStyle=orthogonalEdgeStyle;rounded=0;orthogonalLoop=1;jettySize=auto;html=1;exitX=0;exitY=0.75;exitDx=0;exitDy=0;exitPerimeter=0;endArrow=none;endFill=0;" parent="1" source="YlLWyo49fRAyTckj5HUe-37" edge="1">
          <mxGeometry relative="1" as="geometry">
            <mxPoint x="80" y="305" as="targetPoint" />
            <Array as="points">
              <mxPoint x="80" y="305" />
            </Array>
          </mxGeometry>
        </mxCell>
        <mxCell id="YlLWyo49fRAyTckj5HUe-59" style="edgeStyle=orthogonalEdgeStyle;rounded=0;orthogonalLoop=1;jettySize=auto;html=1;exitX=1;exitY=0.5;exitDx=0;exitDy=0;exitPerimeter=0;endArrow=none;endFill=0;" parent="1" source="YlLWyo49fRAyTckj5HUe-37" edge="1">
          <mxGeometry relative="1" as="geometry">
            <mxPoint x="320" y="270.20000000000005" as="targetPoint" />
          </mxGeometry>
        </mxCell>
        <mxCell id="YlLWyo49fRAyTckj5HUe-37" value="" style="verticalLabelPosition=bottom;shadow=0;dashed=0;align=center;html=1;verticalAlign=top;shape=mxgraph.electrical.logic_gates.logic_gate;operation=or;" parent="1" vertex="1">
          <mxGeometry x="130" y="200" width="140" height="140" as="geometry" />
        </mxCell>
        <mxCell id="YlLWyo49fRAyTckj5HUe-38" value="OR gate with \(n\) inputs" style="text;html=1;strokeColor=none;fillColor=none;align=center;verticalAlign=middle;whiteSpace=wrap;rounded=0;fontSize=16;" parent="1" vertex="1">
          <mxGeometry x="130" y="370" width="100" height="20" as="geometry" />
        </mxCell>
        <mxCell id="YlLWyo49fRAyTckj5HUe-45" value="" style="endArrow=open;html=1;strokeWidth=1;endSize=11;rounded=0;endFill=0;" parent="1" edge="1">
          <mxGeometry width="100" relative="1" as="geometry">
            <mxPoint x="105" y="214.99" as="sourcePoint" />
            <mxPoint x="115" y="214.99" as="targetPoint" />
          </mxGeometry>
        </mxCell>
        <mxCell id="YlLWyo49fRAyTckj5HUe-46" value="" style="endArrow=open;html=1;strokeWidth=1;endSize=11;rounded=0;endFill=0;" parent="1" edge="1">
          <mxGeometry width="100" relative="1" as="geometry">
            <mxPoint x="105" y="235" as="sourcePoint" />
            <mxPoint x="115" y="235" as="targetPoint" />
          </mxGeometry>
        </mxCell>
        <mxCell id="YlLWyo49fRAyTckj5HUe-47" value="" style="endArrow=open;html=1;strokeWidth=1;endSize=11;rounded=0;endFill=0;" parent="1" edge="1">
          <mxGeometry width="100" relative="1" as="geometry">
            <mxPoint x="105" y="255" as="sourcePoint" />
            <mxPoint x="115" y="255" as="targetPoint" />
          </mxGeometry>
        </mxCell>
        <mxCell id="YlLWyo49fRAyTckj5HUe-48" value="" style="endArrow=open;html=1;strokeWidth=1;endSize=11;rounded=0;endFill=0;" parent="1" edge="1">
          <mxGeometry width="100" relative="1" as="geometry">
            <mxPoint x="105" y="305" as="sourcePoint" />
            <mxPoint x="115" y="305" as="targetPoint" />
          </mxGeometry>
        </mxCell>
        <mxCell id="YlLWyo49fRAyTckj5HUe-49" value="" style="endArrow=open;html=1;strokeWidth=1;endSize=11;rounded=0;endFill=0;" parent="1" edge="1">
          <mxGeometry width="100" relative="1" as="geometry">
            <mxPoint x="105" y="325" as="sourcePoint" />
            <mxPoint x="115" y="325" as="targetPoint" />
          </mxGeometry>
        </mxCell>
        <mxCell id="YlLWyo49fRAyTckj5HUe-52" value="&lt;span style=&quot;font-weight: normal;&quot;&gt;\(\cdots\)&lt;/span&gt;" style="text;strokeColor=none;fillColor=none;html=1;fontSize=24;fontStyle=1;verticalAlign=middle;align=center;fontFamily=Courier New;rotation=90;" parent="1" vertex="1">
          <mxGeometry x="90" y="274" width="40" height="10" as="geometry" />
        </mxCell>
        <mxCell id="YlLWyo49fRAyTckj5HUe-54" value="&lt;font style=&quot;font-size: 16px;&quot;&gt;\(x_1\)&lt;/font&gt;" style="text;html=1;strokeColor=none;fillColor=none;align=center;verticalAlign=middle;whiteSpace=wrap;rounded=0;" parent="1" vertex="1">
          <mxGeometry x="50" y="205" width="30" height="20" as="geometry" />
        </mxCell>
        <mxCell id="YlLWyo49fRAyTckj5HUe-55" value="&lt;font style=&quot;font-size: 16px;&quot;&gt;\(x_2\)&lt;/font&gt;" style="text;html=1;strokeColor=none;fillColor=none;align=center;verticalAlign=middle;whiteSpace=wrap;rounded=0;" parent="1" vertex="1">
          <mxGeometry x="50" y="224" width="30" height="20" as="geometry" />
        </mxCell>
        <mxCell id="YlLWyo49fRAyTckj5HUe-56" value="&lt;font style=&quot;font-size: 16px;&quot;&gt;\(x_3\)&lt;/font&gt;" style="text;html=1;strokeColor=none;fillColor=none;align=center;verticalAlign=middle;whiteSpace=wrap;rounded=0;" parent="1" vertex="1">
          <mxGeometry x="50" y="243" width="30" height="20" as="geometry" />
        </mxCell>
        <mxCell id="YlLWyo49fRAyTckj5HUe-57" value="&lt;font style=&quot;font-size: 16px;&quot;&gt;\(x_{n-1}\)&lt;/font&gt;" style="text;html=1;strokeColor=none;fillColor=none;align=center;verticalAlign=middle;whiteSpace=wrap;rounded=0;" parent="1" vertex="1">
          <mxGeometry x="40" y="293" width="40" height="20" as="geometry" />
        </mxCell>
        <mxCell id="YlLWyo49fRAyTckj5HUe-58" value="&lt;font style=&quot;font-size: 16px;&quot;&gt;\(x_{n}\)&lt;/font&gt;" style="text;html=1;strokeColor=none;fillColor=none;align=center;verticalAlign=middle;whiteSpace=wrap;rounded=0;" parent="1" vertex="1">
          <mxGeometry x="40" y="313" width="40" height="20" as="geometry" />
        </mxCell>
        <mxCell id="YlLWyo49fRAyTckj5HUe-60" value="&lt;font style=&quot;font-size: 16px;&quot;&gt;\(x_1 + x_2 + \ldots + x_{n-1} + x_{n}\)&lt;/font&gt;" style="text;html=1;strokeColor=none;fillColor=none;align=left;verticalAlign=middle;whiteSpace=wrap;rounded=0;" parent="1" vertex="1">
          <mxGeometry x="250" y="240" width="220" height="20" as="geometry" />
        </mxCell>
        <mxCell id="YlLWyo49fRAyTckj5HUe-61" value="" style="endArrow=open;html=1;strokeWidth=1;endSize=11;rounded=0;endFill=0;" parent="1" edge="1">
          <mxGeometry width="100" relative="1" as="geometry">
            <mxPoint x="280" y="269.93" as="sourcePoint" />
            <mxPoint x="290" y="269.93" as="targetPoint" />
          </mxGeometry>
        </mxCell>
        <mxCell id="YlLWyo49fRAyTckj5HUe-63" style="edgeStyle=orthogonalEdgeStyle;rounded=0;orthogonalLoop=1;jettySize=auto;html=1;exitX=0;exitY=0.25;exitDx=0;exitDy=0;exitPerimeter=0;endArrow=none;endFill=0;" parent="1" source="YlLWyo49fRAyTckj5HUe-62" edge="1">
          <mxGeometry relative="1" as="geometry">
            <mxPoint x="590" y="235" as="targetPoint" />
          </mxGeometry>
        </mxCell>
        <mxCell id="YlLWyo49fRAyTckj5HUe-64" style="edgeStyle=orthogonalEdgeStyle;rounded=0;orthogonalLoop=1;jettySize=auto;html=1;exitX=0;exitY=0.75;exitDx=0;exitDy=0;exitPerimeter=0;endArrow=none;endFill=0;" parent="1" source="YlLWyo49fRAyTckj5HUe-62" edge="1">
          <mxGeometry relative="1" as="geometry">
            <mxPoint x="590" y="305" as="targetPoint" />
          </mxGeometry>
        </mxCell>
        <mxCell id="YlLWyo49fRAyTckj5HUe-65" value="" style="line;strokeWidth=1;html=1;" parent="1" vertex="1">
          <mxGeometry x="590" y="210" width="100" height="10" as="geometry" />
        </mxCell>
        <mxCell id="YlLWyo49fRAyTckj5HUe-67" value="" style="line;strokeWidth=1;html=1;" parent="1" vertex="1">
          <mxGeometry x="590" y="250" width="100" height="10" as="geometry" />
        </mxCell>
        <mxCell id="YlLWyo49fRAyTckj5HUe-68" value="" style="line;strokeWidth=1;html=1;" parent="1" vertex="1">
          <mxGeometry x="590" y="320" width="100" height="10" as="geometry" />
        </mxCell>
        <mxCell id="YlLWyo49fRAyTckj5HUe-81" style="edgeStyle=orthogonalEdgeStyle;rounded=0;orthogonalLoop=1;jettySize=auto;html=1;exitX=1;exitY=0.5;exitDx=0;exitDy=0;exitPerimeter=0;endArrow=none;endFill=0;" parent="1" source="YlLWyo49fRAyTckj5HUe-62" edge="1">
          <mxGeometry relative="1" as="geometry">
            <mxPoint x="850" y="270" as="targetPoint" />
          </mxGeometry>
        </mxCell>
        <mxCell id="YlLWyo49fRAyTckj5HUe-62" value="" style="verticalLabelPosition=bottom;shadow=0;dashed=0;align=center;html=1;verticalAlign=top;shape=mxgraph.electrical.logic_gates.logic_gate;operation=and;" parent="1" vertex="1">
          <mxGeometry x="640" y="200" width="160" height="140" as="geometry" />
        </mxCell>
        <mxCell id="YlLWyo49fRAyTckj5HUe-69" value="" style="endArrow=open;html=1;strokeWidth=1;endSize=11;rounded=0;endFill=0;" parent="1" edge="1">
          <mxGeometry width="100" relative="1" as="geometry">
            <mxPoint x="630" y="214.93" as="sourcePoint" />
            <mxPoint x="640" y="214.93" as="targetPoint" />
          </mxGeometry>
        </mxCell>
        <mxCell id="YlLWyo49fRAyTckj5HUe-70" value="" style="endArrow=open;html=1;strokeWidth=1;endSize=11;rounded=0;endFill=0;" parent="1" edge="1">
          <mxGeometry width="100" relative="1" as="geometry">
            <mxPoint x="630" y="235" as="sourcePoint" />
            <mxPoint x="640" y="235" as="targetPoint" />
          </mxGeometry>
        </mxCell>
        <mxCell id="YlLWyo49fRAyTckj5HUe-71" value="" style="endArrow=open;html=1;strokeWidth=1;endSize=11;rounded=0;endFill=0;" parent="1" edge="1">
          <mxGeometry width="100" relative="1" as="geometry">
            <mxPoint x="630" y="255" as="sourcePoint" />
            <mxPoint x="640" y="255" as="targetPoint" />
          </mxGeometry>
        </mxCell>
        <mxCell id="YlLWyo49fRAyTckj5HUe-72" value="" style="endArrow=open;html=1;strokeWidth=1;endSize=11;rounded=0;endFill=0;" parent="1" edge="1">
          <mxGeometry width="100" relative="1" as="geometry">
            <mxPoint x="630" y="305" as="sourcePoint" />
            <mxPoint x="640" y="305" as="targetPoint" />
          </mxGeometry>
        </mxCell>
        <mxCell id="YlLWyo49fRAyTckj5HUe-73" value="" style="endArrow=open;html=1;strokeWidth=1;endSize=11;rounded=0;endFill=0;" parent="1" edge="1">
          <mxGeometry width="100" relative="1" as="geometry">
            <mxPoint x="630" y="325" as="sourcePoint" />
            <mxPoint x="640" y="325" as="targetPoint" />
          </mxGeometry>
        </mxCell>
        <mxCell id="YlLWyo49fRAyTckj5HUe-75" value="&lt;font style=&quot;font-size: 16px;&quot;&gt;\(x_1\)&lt;/font&gt;" style="text;html=1;strokeColor=none;fillColor=none;align=center;verticalAlign=middle;whiteSpace=wrap;rounded=0;" parent="1" vertex="1">
          <mxGeometry x="560" y="205" width="30" height="20" as="geometry" />
        </mxCell>
        <mxCell id="YlLWyo49fRAyTckj5HUe-76" value="&lt;font style=&quot;font-size: 16px;&quot;&gt;\(x_2\)&lt;/font&gt;" style="text;html=1;strokeColor=none;fillColor=none;align=center;verticalAlign=middle;whiteSpace=wrap;rounded=0;" parent="1" vertex="1">
          <mxGeometry x="560" y="224" width="30" height="20" as="geometry" />
        </mxCell>
        <mxCell id="YlLWyo49fRAyTckj5HUe-77" value="&lt;font style=&quot;font-size: 16px;&quot;&gt;\(x_3\)&lt;/font&gt;" style="text;html=1;strokeColor=none;fillColor=none;align=center;verticalAlign=middle;whiteSpace=wrap;rounded=0;" parent="1" vertex="1">
          <mxGeometry x="560" y="243" width="30" height="20" as="geometry" />
        </mxCell>
        <mxCell id="YlLWyo49fRAyTckj5HUe-78" value="&lt;font style=&quot;font-size: 16px;&quot;&gt;\(x_{n-1}\)&lt;/font&gt;" style="text;html=1;strokeColor=none;fillColor=none;align=center;verticalAlign=middle;whiteSpace=wrap;rounded=0;" parent="1" vertex="1">
          <mxGeometry x="550" y="293" width="40" height="20" as="geometry" />
        </mxCell>
        <mxCell id="YlLWyo49fRAyTckj5HUe-79" value="&lt;font style=&quot;font-size: 16px;&quot;&gt;\(x_{n}\)&lt;/font&gt;" style="text;html=1;strokeColor=none;fillColor=none;align=center;verticalAlign=middle;whiteSpace=wrap;rounded=0;" parent="1" vertex="1">
          <mxGeometry x="550" y="313" width="40" height="20" as="geometry" />
        </mxCell>
        <mxCell id="YlLWyo49fRAyTckj5HUe-80" value="AND gate with &lt;br&gt;\(n\) inputs" style="text;html=1;strokeColor=none;fillColor=none;align=center;verticalAlign=middle;whiteSpace=wrap;rounded=0;fontSize=16;" parent="1" vertex="1">
          <mxGeometry x="650" y="370" width="140" height="20" as="geometry" />
        </mxCell>
        <mxCell id="YlLWyo49fRAyTckj5HUe-82" value="" style="endArrow=open;html=1;strokeWidth=1;endSize=11;rounded=0;endFill=0;" parent="1" edge="1">
          <mxGeometry width="100" relative="1" as="geometry">
            <mxPoint x="810" y="269.88" as="sourcePoint" />
            <mxPoint x="820" y="269.88" as="targetPoint" />
          </mxGeometry>
        </mxCell>
        <mxCell id="YlLWyo49fRAyTckj5HUe-83" value="&lt;font style=&quot;font-size: 16px;&quot;&gt;\(x_1 x_2 \cdots x_{n-1} x_{n}\)&lt;/font&gt;" style="text;html=1;strokeColor=none;fillColor=none;align=left;verticalAlign=middle;whiteSpace=wrap;rounded=0;" parent="1" vertex="1">
          <mxGeometry x="780" y="240" width="160" height="20" as="geometry" />
        </mxCell>
        <mxCell id="MhXaQet65GjrmybWfvae-1" value="&lt;font style=&quot;font-size: 14px;&quot;&gt;\[&lt;br&gt;\begin{align*}&lt;br&gt;s = x \overline{y} + \overline{x} y&lt;br&gt;&amp;nbsp; &amp;nbsp;&amp;amp;= 0 + x \overline{y} + \overline{x}y + 0 \\&lt;br&gt;&amp;nbsp; &amp;nbsp;&amp;amp;= x \overline{x} + x\overline{y} + \overline{x} y + \overline{y} y \\&lt;br&gt;&amp;nbsp; &amp;nbsp;&amp;amp;= x (\overline{x} + \overline{y}) + (\overline{x} + \overline{y}) y \\&lt;br&gt;&amp;nbsp; &amp;nbsp;&amp;amp;= (x + y) (\overline{x} + \overline{y}) \\&lt;br&gt;&amp;nbsp; &amp;nbsp;&amp;amp;= (x + y) \overline{(x y)}&lt;br&gt;\end{align*}&lt;br&gt;\]&lt;br&gt;&lt;/font&gt;" style="text;html=1;strokeColor=none;fillColor=none;align=left;verticalAlign=middle;whiteSpace=wrap;rounded=0;spacing=0;" vertex="1" parent="1">
          <mxGeometry x="120" y="440" width="320" height="140" as="geometry" />
        </mxCell>
        <mxCell id="MhXaQet65GjrmybWfvae-2" value="\[c = xy\]" style="text;html=1;strokeColor=none;fillColor=none;align=center;verticalAlign=middle;whiteSpace=wrap;rounded=0;fontSize=14;" vertex="1" parent="1">
          <mxGeometry x="120" y="600" width="60" height="20" as="geometry" />
        </mxCell>
        <mxCell id="MhXaQet65GjrmybWfvae-16" style="edgeStyle=orthogonalEdgeStyle;rounded=0;orthogonalLoop=1;jettySize=auto;html=1;exitX=1;exitY=0.5;exitDx=0;exitDy=0;exitPerimeter=0;entryX=0;entryY=0.25;entryDx=0;entryDy=0;entryPerimeter=0;endArrow=none;endFill=0;" edge="1" parent="1" source="MhXaQet65GjrmybWfvae-3" target="MhXaQet65GjrmybWfvae-14">
          <mxGeometry relative="1" as="geometry">
            <Array as="points">
              <mxPoint x="830" y="470" />
            </Array>
          </mxGeometry>
        </mxCell>
        <mxCell id="MhXaQet65GjrmybWfvae-3" value="" style="verticalLabelPosition=bottom;shadow=0;dashed=0;align=center;html=1;verticalAlign=top;shape=mxgraph.electrical.logic_gates.logic_gate;operation=or;" vertex="1" parent="1">
          <mxGeometry x="600" y="440" width="100" height="60" as="geometry" />
        </mxCell>
        <mxCell id="MhXaQet65GjrmybWfvae-4" style="edgeStyle=orthogonalEdgeStyle;rounded=0;orthogonalLoop=1;jettySize=auto;html=1;exitX=0;exitY=0.25;exitDx=0;exitDy=0;exitPerimeter=0;endArrow=none;endFill=0;" edge="1" parent="1" source="MhXaQet65GjrmybWfvae-3">
          <mxGeometry relative="1" as="geometry">
            <mxPoint x="510" y="455.0344827586207" as="targetPoint" />
            <mxPoint x="560" y="455" as="sourcePoint" />
          </mxGeometry>
        </mxCell>
        <mxCell id="MhXaQet65GjrmybWfvae-5" style="edgeStyle=orthogonalEdgeStyle;rounded=0;orthogonalLoop=1;jettySize=auto;html=1;exitX=0;exitY=0.75;exitDx=0;exitDy=0;exitPerimeter=0;endArrow=none;endFill=0;" edge="1" parent="1" source="MhXaQet65GjrmybWfvae-3">
          <mxGeometry relative="1" as="geometry">
            <mxPoint x="510" y="484.91954022988506" as="targetPoint" />
            <mxPoint x="560" y="485" as="sourcePoint" />
          </mxGeometry>
        </mxCell>
        <mxCell id="MhXaQet65GjrmybWfvae-6" value="" style="endArrow=open;html=1;strokeWidth=1;endSize=11;rounded=0;endFill=0;" edge="1" parent="1">
          <mxGeometry width="100" relative="1" as="geometry">
            <mxPoint x="540" y="455" as="sourcePoint" />
            <mxPoint x="550" y="455" as="targetPoint" />
          </mxGeometry>
        </mxCell>
        <mxCell id="MhXaQet65GjrmybWfvae-7" value="" style="endArrow=open;html=1;strokeWidth=1;endSize=11;rounded=0;endFill=0;" edge="1" parent="1">
          <mxGeometry width="100" relative="1" as="geometry">
            <mxPoint x="540" y="485" as="sourcePoint" />
            <mxPoint x="550" y="485" as="targetPoint" />
          </mxGeometry>
        </mxCell>
        <mxCell id="MhXaQet65GjrmybWfvae-8" value="&lt;font style=&quot;font-size: 16px;&quot;&gt;\(x\)&lt;/font&gt;" style="text;html=1;strokeColor=none;fillColor=none;align=center;verticalAlign=middle;whiteSpace=wrap;rounded=0;" vertex="1" parent="1">
          <mxGeometry x="510" y="420" width="60" height="30" as="geometry" />
        </mxCell>
        <mxCell id="MhXaQet65GjrmybWfvae-9" value="&lt;font style=&quot;font-size: 16px;&quot;&gt;\(y\)&lt;/font&gt;" style="text;html=1;strokeColor=none;fillColor=none;align=center;verticalAlign=middle;whiteSpace=wrap;rounded=0;" vertex="1" parent="1">
          <mxGeometry x="510" y="490" width="60" height="20" as="geometry" />
        </mxCell>
        <mxCell id="MhXaQet65GjrmybWfvae-11" style="edgeStyle=orthogonalEdgeStyle;rounded=0;orthogonalLoop=1;jettySize=auto;html=1;exitX=0;exitY=0.25;exitDx=0;exitDy=0;exitPerimeter=0;endArrow=oval;endFill=1;jumpStyle=arc;jumpSize=10;" edge="1" parent="1" source="MhXaQet65GjrmybWfvae-10">
          <mxGeometry relative="1" as="geometry">
            <mxPoint x="590" y="455" as="targetPoint" />
            <Array as="points">
              <mxPoint x="590" y="575" />
            </Array>
          </mxGeometry>
        </mxCell>
        <mxCell id="MhXaQet65GjrmybWfvae-12" style="edgeStyle=orthogonalEdgeStyle;rounded=0;orthogonalLoop=1;jettySize=auto;html=1;exitX=0;exitY=0.75;exitDx=0;exitDy=0;exitPerimeter=0;endArrow=oval;endFill=1;" edge="1" parent="1" source="MhXaQet65GjrmybWfvae-10">
          <mxGeometry relative="1" as="geometry">
            <mxPoint x="570" y="485" as="targetPoint" />
          </mxGeometry>
        </mxCell>
        <mxCell id="MhXaQet65GjrmybWfvae-15" style="edgeStyle=orthogonalEdgeStyle;rounded=0;orthogonalLoop=1;jettySize=auto;html=1;exitX=1;exitY=0.5;exitDx=0;exitDy=0;exitPerimeter=0;entryX=0;entryY=0.5;entryDx=0;entryDy=0;entryPerimeter=0;endArrow=none;endFill=0;" edge="1" parent="1" source="MhXaQet65GjrmybWfvae-10" target="MhXaQet65GjrmybWfvae-13">
          <mxGeometry relative="1" as="geometry" />
        </mxCell>
        <mxCell id="MhXaQet65GjrmybWfvae-10" value="" style="verticalLabelPosition=bottom;shadow=0;dashed=0;align=center;html=1;verticalAlign=top;shape=mxgraph.electrical.logic_gates.logic_gate;operation=and;" vertex="1" parent="1">
          <mxGeometry x="600" y="560" width="100" height="60" as="geometry" />
        </mxCell>
        <mxCell id="MhXaQet65GjrmybWfvae-17" style="edgeStyle=orthogonalEdgeStyle;rounded=0;orthogonalLoop=1;jettySize=auto;html=1;exitX=1;exitY=0.5;exitDx=0;exitDy=0;exitPerimeter=0;entryX=0;entryY=0.75;entryDx=0;entryDy=0;entryPerimeter=0;endArrow=none;endFill=0;" edge="1" parent="1" source="MhXaQet65GjrmybWfvae-13" target="MhXaQet65GjrmybWfvae-14">
          <mxGeometry relative="1" as="geometry">
            <Array as="points">
              <mxPoint x="830" y="525" />
            </Array>
          </mxGeometry>
        </mxCell>
        <mxCell id="MhXaQet65GjrmybWfvae-13" value="" style="verticalLabelPosition=bottom;shadow=0;dashed=0;align=center;html=1;verticalAlign=top;shape=mxgraph.electrical.logic_gates.inverter_2;movable=1;resizable=1;rotatable=1;deletable=1;editable=1;locked=0;connectable=1;" vertex="1" parent="1">
          <mxGeometry x="730" y="560" width="100" height="60" as="geometry" />
        </mxCell>
        <mxCell id="MhXaQet65GjrmybWfvae-14" value="" style="verticalLabelPosition=bottom;shadow=0;dashed=0;align=center;html=1;verticalAlign=top;shape=mxgraph.electrical.logic_gates.logic_gate;operation=and;" vertex="1" parent="1">
          <mxGeometry x="860" y="480" width="100" height="60" as="geometry" />
        </mxCell>
        <mxCell id="MhXaQet65GjrmybWfvae-18" value="&lt;font style=&quot;font-size: 16px;&quot;&gt;\(x+y\)&lt;/font&gt;" style="text;html=1;strokeColor=none;fillColor=none;align=center;verticalAlign=middle;whiteSpace=wrap;rounded=0;" vertex="1" parent="1">
          <mxGeometry x="680" y="440" width="60" height="30" as="geometry" />
        </mxCell>
        <mxCell id="MhXaQet65GjrmybWfvae-19" value="&lt;font style=&quot;font-size: 16px;&quot;&gt;\(xy\)&lt;/font&gt;" style="text;html=1;strokeColor=none;fillColor=none;align=center;verticalAlign=middle;whiteSpace=wrap;rounded=0;" vertex="1" parent="1">
          <mxGeometry x="680" y="560" width="60" height="30" as="geometry" />
        </mxCell>
        <mxCell id="MhXaQet65GjrmybWfvae-26" style="edgeStyle=orthogonalEdgeStyle;rounded=0;orthogonalLoop=1;jettySize=auto;html=1;exitX=1;exitY=0.5;exitDx=0;exitDy=0;exitPerimeter=0;endArrow=none;endFill=0;" edge="1" parent="1">
          <mxGeometry relative="1" as="geometry">
            <mxPoint x="1080" y="510" as="targetPoint" />
            <mxPoint x="960" y="510" as="sourcePoint" />
            <Array as="points">
              <mxPoint x="990" y="510.5" />
            </Array>
          </mxGeometry>
        </mxCell>
        <mxCell id="MhXaQet65GjrmybWfvae-27" value="" style="endArrow=open;html=1;strokeWidth=1;endSize=11;rounded=0;endFill=0;" edge="1" parent="1">
          <mxGeometry width="100" relative="1" as="geometry">
            <mxPoint x="970" y="509.92999999999995" as="sourcePoint" />
            <mxPoint x="980" y="509.92999999999995" as="targetPoint" />
          </mxGeometry>
        </mxCell>
        <mxCell id="MhXaQet65GjrmybWfvae-28" value="&lt;font style=&quot;font-size: 16px;&quot;&gt;\((x + y)\overline{(x y)}\)&lt;/font&gt;" style="text;html=1;strokeColor=none;fillColor=none;align=center;verticalAlign=middle;whiteSpace=wrap;rounded=0;" vertex="1" parent="1">
          <mxGeometry x="1000" y="470" width="60" height="40" as="geometry" />
        </mxCell>
        <mxCell id="MhXaQet65GjrmybWfvae-33" value="sum" style="text;html=1;strokeColor=none;fillColor=none;align=center;verticalAlign=middle;whiteSpace=wrap;rounded=0;fontSize=16;" vertex="1" parent="1">
          <mxGeometry x="1080" y="490" width="60" height="20" as="geometry" />
        </mxCell>
        <mxCell id="MhXaQet65GjrmybWfvae-34" value="carry" style="text;html=1;strokeColor=none;fillColor=none;align=center;verticalAlign=middle;whiteSpace=wrap;rounded=0;fontSize=16;" vertex="1" parent="1">
          <mxGeometry x="1080" y="620" width="60" height="20" as="geometry" />
        </mxCell>
        <mxCell id="MhXaQet65GjrmybWfvae-35" style="edgeStyle=orthogonalEdgeStyle;rounded=0;orthogonalLoop=1;jettySize=auto;html=1;endArrow=none;endFill=0;exitX=0.5;exitY=1;exitDx=0;exitDy=0;startArrow=oval;startFill=1;entryX=0;entryY=1;entryDx=0;entryDy=0;" edge="1" parent="1" source="MhXaQet65GjrmybWfvae-19" target="MhXaQet65GjrmybWfvae-34">
          <mxGeometry relative="1" as="geometry">
            <mxPoint x="980" y="639.9444444444445" as="targetPoint" />
            <mxPoint x="710" y="640" as="sourcePoint" />
            <Array as="points">
              <mxPoint x="710" y="640" />
            </Array>
          </mxGeometry>
        </mxCell>
        <mxCell id="MhXaQet65GjrmybWfvae-36" value="" style="endArrow=open;html=1;strokeWidth=1;endSize=11;rounded=0;endFill=0;" edge="1" parent="1">
          <mxGeometry width="100" relative="1" as="geometry">
            <mxPoint x="970" y="639.8399999999999" as="sourcePoint" />
            <mxPoint x="980" y="639.8399999999999" as="targetPoint" />
          </mxGeometry>
        </mxCell>
        <mxCell id="MhXaQet65GjrmybWfvae-37" value="&lt;font style=&quot;font-size: 16px;&quot;&gt;\(x y\)&lt;/font&gt;" style="text;html=1;strokeColor=none;fillColor=none;align=center;verticalAlign=middle;whiteSpace=wrap;rounded=0;" vertex="1" parent="1">
          <mxGeometry x="970" y="600" width="60" height="40" as="geometry" />
        </mxCell>
        <mxCell id="MhXaQet65GjrmybWfvae-38" value="" style="endArrow=open;html=1;strokeWidth=1;endSize=11;rounded=0;endFill=0;" edge="1" parent="1">
          <mxGeometry width="100" relative="1" as="geometry">
            <mxPoint x="850" y="525" as="sourcePoint" />
            <mxPoint x="860" y="525" as="targetPoint" />
          </mxGeometry>
        </mxCell>
        <mxCell id="MhXaQet65GjrmybWfvae-39" value="" style="endArrow=open;html=1;strokeWidth=1;endSize=11;rounded=0;endFill=0;" edge="1" parent="1">
          <mxGeometry width="100" relative="1" as="geometry">
            <mxPoint x="850" y="495" as="sourcePoint" />
            <mxPoint x="860" y="495" as="targetPoint" />
          </mxGeometry>
        </mxCell>
        <mxCell id="MhXaQet65GjrmybWfvae-41" value="&lt;font style=&quot;font-size: 16px;&quot;&gt;Half Adder&lt;/font&gt;" style="rounded=0;whiteSpace=wrap;html=1;" vertex="1" parent="1">
          <mxGeometry x="620" y="730" width="60" height="60" as="geometry" />
        </mxCell>
        <mxCell id="MhXaQet65GjrmybWfvae-44" style="edgeStyle=orthogonalEdgeStyle;rounded=0;orthogonalLoop=1;jettySize=auto;html=1;exitX=0;exitY=0.25;exitDx=0;exitDy=0;exitPerimeter=0;endArrow=none;endFill=0;" edge="1" parent="1">
          <mxGeometry relative="1" as="geometry">
            <mxPoint x="580" y="64.94444444444446" as="targetPoint" />
            <mxPoint x="630" y="65" as="sourcePoint" />
          </mxGeometry>
        </mxCell>
        <mxCell id="MhXaQet65GjrmybWfvae-45" style="edgeStyle=orthogonalEdgeStyle;rounded=0;orthogonalLoop=1;jettySize=auto;html=1;exitX=0;exitY=0.75;exitDx=0;exitDy=0;exitPerimeter=0;endArrow=none;endFill=0;" edge="1" parent="1">
          <mxGeometry relative="1" as="geometry">
            <mxPoint x="580" y="94.94444444444446" as="targetPoint" />
            <mxPoint x="630" y="95" as="sourcePoint" />
          </mxGeometry>
        </mxCell>
        <mxCell id="MhXaQet65GjrmybWfvae-46" value="&lt;font style=&quot;font-size: 16px;&quot;&gt;\(x\)&lt;/font&gt;" style="text;html=1;strokeColor=none;fillColor=none;align=center;verticalAlign=middle;whiteSpace=wrap;rounded=0;" vertex="1" parent="1">
          <mxGeometry x="590" y="30" width="60" height="30" as="geometry" />
        </mxCell>
        <mxCell id="MhXaQet65GjrmybWfvae-47" value="&lt;font style=&quot;font-size: 16px;&quot;&gt;\(y\)&lt;/font&gt;" style="text;html=1;strokeColor=none;fillColor=none;align=center;verticalAlign=middle;whiteSpace=wrap;rounded=0;" vertex="1" parent="1">
          <mxGeometry x="590" y="100" width="60" height="20" as="geometry" />
        </mxCell>
        <mxCell id="MhXaQet65GjrmybWfvae-48" value="" style="endArrow=open;html=1;strokeWidth=1;endSize=11;rounded=0;endFill=0;" edge="1" parent="1">
          <mxGeometry width="100" relative="1" as="geometry">
            <mxPoint x="620" y="94.99999999999999" as="sourcePoint" />
            <mxPoint x="630" y="94.99999999999999" as="targetPoint" />
          </mxGeometry>
        </mxCell>
        <mxCell id="MhXaQet65GjrmybWfvae-49" value="" style="endArrow=open;html=1;strokeWidth=1;endSize=11;rounded=0;endFill=0;" edge="1" parent="1">
          <mxGeometry width="100" relative="1" as="geometry">
            <mxPoint x="620" y="64.99999999999997" as="sourcePoint" />
            <mxPoint x="630" y="64.99999999999997" as="targetPoint" />
          </mxGeometry>
        </mxCell>
        <mxCell id="MhXaQet65GjrmybWfvae-50" style="edgeStyle=orthogonalEdgeStyle;rounded=0;orthogonalLoop=1;jettySize=auto;html=1;endArrow=none;endFill=0;exitX=0;exitY=0.25;exitDx=0;exitDy=0;" edge="1" parent="1" source="MhXaQet65GjrmybWfvae-41">
          <mxGeometry relative="1" as="geometry">
            <mxPoint x="570" y="745" as="targetPoint" />
            <mxPoint x="610" y="745" as="sourcePoint" />
            <Array as="points" />
          </mxGeometry>
        </mxCell>
        <mxCell id="MhXaQet65GjrmybWfvae-51" style="edgeStyle=orthogonalEdgeStyle;rounded=0;orthogonalLoop=1;jettySize=auto;html=1;endArrow=none;endFill=0;exitX=0;exitY=0.75;exitDx=0;exitDy=0;" edge="1" parent="1" source="MhXaQet65GjrmybWfvae-41">
          <mxGeometry relative="1" as="geometry">
            <mxPoint x="570" y="775" as="targetPoint" />
            <mxPoint x="610" y="775" as="sourcePoint" />
            <Array as="points" />
          </mxGeometry>
        </mxCell>
        <mxCell id="MhXaQet65GjrmybWfvae-52" value="&lt;font style=&quot;font-size: 16px;&quot;&gt;\(x\)&lt;/font&gt;" style="text;html=1;strokeColor=none;fillColor=none;align=center;verticalAlign=middle;whiteSpace=wrap;rounded=0;" vertex="1" parent="1">
          <mxGeometry x="560" y="710" width="60" height="30" as="geometry" />
        </mxCell>
        <mxCell id="MhXaQet65GjrmybWfvae-53" value="&lt;font style=&quot;font-size: 16px;&quot;&gt;\(y\)&lt;/font&gt;" style="text;html=1;strokeColor=none;fillColor=none;align=center;verticalAlign=middle;whiteSpace=wrap;rounded=0;" vertex="1" parent="1">
          <mxGeometry x="560" y="780" width="60" height="20" as="geometry" />
        </mxCell>
        <mxCell id="MhXaQet65GjrmybWfvae-54" value="" style="endArrow=open;html=1;strokeWidth=1;endSize=11;rounded=0;endFill=0;" edge="1" parent="1">
          <mxGeometry width="100" relative="1" as="geometry">
            <mxPoint x="590" y="775" as="sourcePoint" />
            <mxPoint x="600" y="775" as="targetPoint" />
          </mxGeometry>
        </mxCell>
        <mxCell id="MhXaQet65GjrmybWfvae-55" value="" style="endArrow=open;html=1;strokeWidth=1;endSize=11;rounded=0;endFill=0;" edge="1" parent="1">
          <mxGeometry width="100" relative="1" as="geometry">
            <mxPoint x="590" y="745" as="sourcePoint" />
            <mxPoint x="600" y="745" as="targetPoint" />
          </mxGeometry>
        </mxCell>
        <mxCell id="MhXaQet65GjrmybWfvae-56" style="edgeStyle=orthogonalEdgeStyle;rounded=0;orthogonalLoop=1;jettySize=auto;html=1;endArrow=none;endFill=0;exitX=0;exitY=0.25;exitDx=0;exitDy=0;" edge="1" parent="1">
          <mxGeometry relative="1" as="geometry">
            <mxPoint x="680" y="744.93" as="targetPoint" />
            <mxPoint x="730" y="744.93" as="sourcePoint" />
            <Array as="points" />
          </mxGeometry>
        </mxCell>
        <mxCell id="MhXaQet65GjrmybWfvae-57" style="edgeStyle=orthogonalEdgeStyle;rounded=0;orthogonalLoop=1;jettySize=auto;html=1;endArrow=none;endFill=0;exitX=0;exitY=0.75;exitDx=0;exitDy=0;" edge="1" parent="1">
          <mxGeometry relative="1" as="geometry">
            <mxPoint x="680" y="774.93" as="targetPoint" />
            <mxPoint x="730" y="774.93" as="sourcePoint" />
            <Array as="points" />
          </mxGeometry>
        </mxCell>
        <mxCell id="MhXaQet65GjrmybWfvae-58" value="" style="endArrow=open;html=1;strokeWidth=1;endSize=11;rounded=0;endFill=0;" edge="1" parent="1">
          <mxGeometry width="100" relative="1" as="geometry">
            <mxPoint x="700" y="774.93" as="sourcePoint" />
            <mxPoint x="710" y="774.93" as="targetPoint" />
          </mxGeometry>
        </mxCell>
        <mxCell id="MhXaQet65GjrmybWfvae-59" value="" style="endArrow=open;html=1;strokeWidth=1;endSize=11;rounded=0;endFill=0;" edge="1" parent="1">
          <mxGeometry width="100" relative="1" as="geometry">
            <mxPoint x="700" y="744.93" as="sourcePoint" />
            <mxPoint x="710" y="744.93" as="targetPoint" />
          </mxGeometry>
        </mxCell>
        <mxCell id="MhXaQet65GjrmybWfvae-61" value="&lt;font style=&quot;font-size: 16px;&quot;&gt;\((x + y)\overline{(x y)}\)&lt;/font&gt;" style="text;html=1;strokeColor=none;fillColor=none;align=center;verticalAlign=middle;whiteSpace=wrap;rounded=0;" vertex="1" parent="1">
          <mxGeometry x="710" y="710" width="100" height="30" as="geometry" />
        </mxCell>
        <mxCell id="MhXaQet65GjrmybWfvae-62" value="&lt;span style=&quot;font-size: 16px;&quot;&gt;\(xy\)&lt;/span&gt;" style="text;html=1;strokeColor=none;fillColor=none;align=center;verticalAlign=middle;whiteSpace=wrap;rounded=0;" vertex="1" parent="1">
          <mxGeometry x="710" y="770" width="40" height="30" as="geometry" />
        </mxCell>
        <mxCell id="MhXaQet65GjrmybWfvae-63" value="&lt;font style=&quot;font-size: 14px;&quot;&gt;\(s = x\,y\,c_i + x\,\overline{y}\,\overline{c}_i + \overline{x}\,y\,\overline{c}_i + \overline{x}\,\overline{y}\,c_i\)&lt;br&gt;&lt;/font&gt;" style="text;html=1;strokeColor=none;fillColor=none;align=left;verticalAlign=middle;whiteSpace=wrap;rounded=0;spacing=0;" vertex="1" parent="1">
          <mxGeometry x="120" y="880" width="320" height="40" as="geometry" />
        </mxCell>
        <mxCell id="MhXaQet65GjrmybWfvae-64" value="&lt;font style=&quot;font-size: 14px;&quot;&gt;\(c_{i+1} = x\,y\,c_i + x \,y\,\overline{c}_i + x \,\overline{y}\,c_i + \overline{x}\,y\,c_i\)&lt;br&gt;&lt;/font&gt;" style="text;html=1;strokeColor=none;fillColor=none;align=left;verticalAlign=middle;whiteSpace=wrap;rounded=0;spacing=0;" vertex="1" parent="1">
          <mxGeometry x="120" y="960" width="320" height="40" as="geometry" />
        </mxCell>
        <mxCell id="MhXaQet65GjrmybWfvae-65" value="&lt;font style=&quot;font-size: 14px;&quot;&gt;\[&lt;br&gt;\begin{align*}&lt;br&gt;&amp;nbsp; s &amp;amp;= x\,y\,c_i + x\,\overline{y}\,\overline{c}_i + \overline{x}\,y\,\overline{c}_i + \overline{x}\,\overline{y}\,c_i \\&lt;br&gt;&amp;nbsp; &amp;nbsp; &amp;nbsp;&amp;amp;= 0&amp;nbsp; + x\,y\,c_i + x\,\overline{y}\,\overline{c}_i +&amp;nbsp; \overline{x}\,y\,\overline{c}_i + 0 + 0 +&amp;nbsp; \overline{x}\,\overline{y}\,c_i + 0 + 0 \\&lt;br&gt;&amp;nbsp; &amp;nbsp; &amp;nbsp;&amp;amp;= c_i \,\overline{c}_i&amp;nbsp; + x\,y\,c_i + x\,\overline{y}\,\overline{c}_i +&amp;nbsp; \overline{x}\,y\,\overline{c}_i + x\,\overline{y}\,\overline{x}\,\overline{y} + x\,\overline{y}\,x\,y +&amp;nbsp; \overline{x}\,\overline{y}\,c_i + \overline{x}\,y\,\overline{x}\,\overline{y} + \overline{x}\,y\,x\,y \\&lt;br&gt;&amp;nbsp; &amp;nbsp; &amp;nbsp;&amp;amp;= \left( c_i + x\,\overline{y} + \overline{x}\,y \right)&amp;nbsp;&lt;br&gt;&amp;nbsp; &amp;nbsp; &amp;nbsp; &amp;nbsp; &amp;nbsp; &amp;nbsp;\left( \overline{c}_i + \overline{x}\,\overline{y} + x\,y\right) \\&lt;br&gt;&amp;nbsp; &amp;nbsp; &amp;nbsp;&amp;amp;=&amp;nbsp;&amp;nbsp;\left( c_i + x\,\overline{y} + \overline{x}\,y \right)&amp;nbsp;&lt;br style=&quot;border-color: var(--border-color);&quot;&gt;&amp;nbsp; &amp;nbsp; &amp;nbsp; &amp;nbsp; &amp;nbsp; &amp;nbsp;\left( \overline{c}_i + \overline{x}\,\overline{y} + 0 + 0 + y\,x\right) \\&lt;br&gt;&amp;nbsp; &amp;nbsp; &amp;nbsp;&amp;amp;=&amp;nbsp;&amp;nbsp;\left( c_i + x\,\overline{y} + \overline{x}\,y \right)&amp;nbsp;&lt;br style=&quot;border-color: var(--border-color);&quot;&gt;&amp;nbsp; &amp;nbsp; &amp;nbsp; &amp;nbsp; &amp;nbsp; &amp;nbsp;\left( \overline{c}_i + \overline{x}\,\overline{y} + \overline{x}\,x + y\,\overline{y} + y\,x\right) \\&lt;br&gt;&amp;nbsp; &amp;nbsp; &amp;nbsp;&amp;amp;= \left( c_i + x\,\overline{y} + \overline{x}\,y \right)&amp;nbsp;&lt;br style=&quot;border-color: var(--border-color);&quot;&gt;&amp;nbsp; &amp;nbsp; &amp;nbsp; &amp;nbsp; &amp;nbsp; &amp;nbsp;\left( \overline{c}_i + (\overline{x} + y)(\overline{y} + x)\right) \\&lt;br&gt;&amp;nbsp; &amp;nbsp; &amp;nbsp;&amp;amp;= \left( c_i + x\,\overline{y} + \overline{x}\,y \right)&amp;nbsp;&lt;br style=&quot;border-color: var(--border-color);&quot;&gt;&amp;nbsp; &amp;nbsp; &amp;nbsp; &amp;nbsp; &amp;nbsp; &amp;nbsp;\left( \overline{c}_i + \overline{(x\,\overline{y})}\,\, \overline{(y\,\overline{x})}\right) \\&lt;br&gt;&amp;nbsp; &amp;nbsp; &amp;nbsp;&amp;amp;= \left( c_i + x\,\overline{y} + \overline{x}\,y \right)&amp;nbsp;&lt;br style=&quot;border-color: var(--border-color);&quot;&gt;&amp;nbsp; &amp;nbsp; &amp;nbsp; &amp;nbsp; &amp;nbsp; &amp;nbsp;\left( \overline{c}_i + \overline{(x\,\overline{y} + y\,\overline{x})}\right) \\&amp;nbsp;&lt;br&gt;&amp;nbsp; &amp;nbsp; &amp;nbsp;&amp;amp;=&amp;nbsp;&amp;nbsp;\left( c_i + 0 + x\,\overline{y} + \overline{x}\,y + 0 \right)&amp;nbsp;&lt;br style=&quot;border-color: var(--border-color);&quot;&gt;&amp;nbsp; &amp;nbsp; &amp;nbsp; &amp;nbsp; &amp;nbsp; &amp;nbsp;\left( \overline{c}_i + \overline{(0 + x\,\overline{y} + y\,\overline{x} + 0)}\right) \\&lt;br&gt;&amp;nbsp; &amp;nbsp; &amp;nbsp;&amp;amp;=&amp;nbsp;&amp;nbsp;\left( c_i + (x\,\overline{x} + x\,\overline{y} + \overline{x}\,y + y\,\overline{y}) \right)&amp;nbsp;&lt;br style=&quot;border-color: var(--border-color);&quot;&gt;&amp;nbsp; &amp;nbsp; &amp;nbsp; &amp;nbsp; &amp;nbsp; &amp;nbsp;\left( \overline{c}_i + \overline{(x\,\overline{x} + x\,\overline{y} + y\,\overline{x} + y\,\overline{y})}\right) \\&lt;br&gt;&amp;nbsp; &amp;nbsp; &amp;nbsp;&amp;amp;=&amp;nbsp;&amp;nbsp;\left( c_i + \left((x+y)(\overline{x} + \overline{y})\right) \right)&amp;nbsp;&lt;br style=&quot;border-color: var(--border-color);&quot;&gt;&amp;nbsp; &amp;nbsp; &amp;nbsp; &amp;nbsp; &amp;nbsp; &amp;nbsp;\left( \overline{c}_i + \overline{\left((x+y) (\overline{x} + \overline{y})\right)}\right) \\&lt;br&gt;&amp;nbsp; &amp;nbsp; &amp;nbsp;&amp;amp;=&amp;nbsp;&amp;nbsp;\left( c_i + \left((x+y) \overline{(x\,y)}\right) \right)&amp;nbsp;&lt;br style=&quot;border-color: var(--border-color);&quot;&gt;&amp;nbsp; &amp;nbsp; &amp;nbsp; &amp;nbsp; &amp;nbsp; &amp;nbsp;\left( \overline{c}_i + \overline{\left((x+y)&amp;nbsp; \overline{(x\,y)}\right)}\right) \\&lt;br&gt;&amp;nbsp; &amp;nbsp; &amp;nbsp;&amp;amp;=&amp;nbsp;&amp;nbsp;\left( c_i + \left((x+y) \overline{(x\,y)}\right) \right)&amp;nbsp;&lt;br style=&quot;border-color: var(--border-color);&quot;&gt;&amp;nbsp; &amp;nbsp; &amp;nbsp; &amp;nbsp; &amp;nbsp; &amp;nbsp;\overline{\left( c_i \,\left((x+y)&amp;nbsp; \overline{(x\,y)}\right)\right)}&amp;nbsp;&lt;br style=&quot;border-color: var(--border-color);&quot;&gt;\end{align*}&lt;br&gt;\]&lt;br&gt;&lt;/font&gt;" style="text;html=1;strokeColor=none;fillColor=none;align=left;verticalAlign=middle;whiteSpace=wrap;rounded=0;spacing=0;spacingTop=24;" vertex="1" parent="1">
          <mxGeometry x="520" y="840" width="600" height="480" as="geometry" />
        </mxCell>
        <mxCell id="MhXaQet65GjrmybWfvae-66" value="&lt;font style=&quot;font-size: 14px;&quot;&gt;\[&lt;br&gt;\begin{align*}&lt;br&gt;&amp;nbsp; c_{i+1} &lt;br&gt;&amp;nbsp; &amp;nbsp; &amp;nbsp; &amp;nbsp;&amp;amp;= x\,y\,c_i + x \,y\,\overline{c}_i + x \,\overline{y}\,c_i + \overline{x}\,y\,c_i&amp;nbsp; \\&lt;br&gt;&amp;nbsp; &amp;nbsp; &amp;nbsp; &amp;nbsp;&amp;amp;= x\,y\left(c_i + \overline{c}_i \right)+ x \,\overline{y}\,c_i + \overline{x}\,y\,c_i&amp;nbsp; \\&lt;br&gt;&amp;nbsp; &amp;nbsp; &amp;nbsp; &amp;nbsp;&amp;amp;= x\,y \cdot 1 + \left(x \,\overline{y} + \overline{x}\,y\right) c_i&amp;nbsp; \\&lt;br&gt;&amp;nbsp; &amp;nbsp; &amp;nbsp; &amp;nbsp;&amp;amp;= xy + (x + y) \overline{(x\,y)} c_i&lt;br&gt;\end{align*}&lt;br&gt;\]&lt;br&gt;&amp;nbsp; &amp;nbsp;&lt;br&gt;&lt;/font&gt;" style="text;html=1;strokeColor=none;fillColor=none;align=left;verticalAlign=middle;rounded=0;spacing=0;whiteSpace=wrap;spacingTop=24;" vertex="1" parent="1">
          <mxGeometry x="1200" y="840" width="320" height="130" as="geometry" />
        </mxCell>
        <mxCell id="MhXaQet65GjrmybWfvae-67" value="&lt;font style=&quot;font-size: 16px;&quot;&gt;Half Adder&lt;/font&gt;" style="rounded=0;whiteSpace=wrap;html=1;" vertex="1" parent="1">
          <mxGeometry x="580" y="1610" width="60" height="60" as="geometry" />
        </mxCell>
        <mxCell id="MhXaQet65GjrmybWfvae-68" style="edgeStyle=orthogonalEdgeStyle;rounded=0;orthogonalLoop=1;jettySize=auto;html=1;endArrow=none;endFill=0;exitX=0;exitY=0.25;exitDx=0;exitDy=0;" edge="1" source="MhXaQet65GjrmybWfvae-67" parent="1">
          <mxGeometry relative="1" as="geometry">
            <mxPoint x="530" y="1625" as="targetPoint" />
            <mxPoint x="570" y="1625" as="sourcePoint" />
            <Array as="points" />
          </mxGeometry>
        </mxCell>
        <mxCell id="MhXaQet65GjrmybWfvae-69" style="edgeStyle=orthogonalEdgeStyle;rounded=0;orthogonalLoop=1;jettySize=auto;html=1;endArrow=none;endFill=0;exitX=0;exitY=0.75;exitDx=0;exitDy=0;" edge="1" source="MhXaQet65GjrmybWfvae-67" parent="1">
          <mxGeometry relative="1" as="geometry">
            <mxPoint x="530" y="1655" as="targetPoint" />
            <mxPoint x="570" y="1655" as="sourcePoint" />
            <Array as="points" />
          </mxGeometry>
        </mxCell>
        <mxCell id="MhXaQet65GjrmybWfvae-70" value="&lt;font style=&quot;font-size: 16px;&quot;&gt;\(x\)&lt;/font&gt;" style="text;html=1;strokeColor=none;fillColor=none;align=center;verticalAlign=middle;whiteSpace=wrap;rounded=0;" vertex="1" parent="1">
          <mxGeometry x="500" y="1610" width="30" height="30" as="geometry" />
        </mxCell>
        <mxCell id="MhXaQet65GjrmybWfvae-71" value="&lt;font style=&quot;font-size: 16px;&quot;&gt;\(y\)&lt;/font&gt;" style="text;html=1;strokeColor=none;fillColor=none;align=center;verticalAlign=middle;whiteSpace=wrap;rounded=0;" vertex="1" parent="1">
          <mxGeometry x="500" y="1640" width="30" height="30" as="geometry" />
        </mxCell>
        <mxCell id="MhXaQet65GjrmybWfvae-72" value="" style="endArrow=open;html=1;strokeWidth=1;endSize=11;rounded=0;endFill=0;" edge="1" parent="1">
          <mxGeometry width="100" relative="1" as="geometry">
            <mxPoint x="550" y="1655" as="sourcePoint" />
            <mxPoint x="560" y="1655" as="targetPoint" />
          </mxGeometry>
        </mxCell>
        <mxCell id="MhXaQet65GjrmybWfvae-73" value="" style="endArrow=open;html=1;strokeWidth=1;endSize=11;rounded=0;endFill=0;" edge="1" parent="1">
          <mxGeometry width="100" relative="1" as="geometry">
            <mxPoint x="550" y="1625" as="sourcePoint" />
            <mxPoint x="560" y="1625" as="targetPoint" />
          </mxGeometry>
        </mxCell>
        <mxCell id="MhXaQet65GjrmybWfvae-74" style="edgeStyle=orthogonalEdgeStyle;rounded=0;orthogonalLoop=1;jettySize=auto;html=1;endArrow=none;endFill=0;" edge="1" parent="1">
          <mxGeometry relative="1" as="geometry">
            <mxPoint x="640" y="1624.9299999999998" as="targetPoint" />
            <mxPoint x="720" y="1565" as="sourcePoint" />
            <Array as="points">
              <mxPoint x="710" y="1565" />
              <mxPoint x="710" y="1625" />
            </Array>
          </mxGeometry>
        </mxCell>
        <mxCell id="MhXaQet65GjrmybWfvae-75" style="edgeStyle=orthogonalEdgeStyle;rounded=0;orthogonalLoop=1;jettySize=auto;html=1;endArrow=none;endFill=0;exitX=0;exitY=0.75;exitDx=0;exitDy=0;" edge="1" parent="1">
          <mxGeometry relative="1" as="geometry">
            <mxPoint x="640" y="1654.9299999999998" as="targetPoint" />
            <mxPoint x="690" y="1654.9299999999998" as="sourcePoint" />
            <Array as="points" />
          </mxGeometry>
        </mxCell>
        <mxCell id="MhXaQet65GjrmybWfvae-76" value="" style="endArrow=open;html=1;strokeWidth=1;endSize=11;rounded=0;endFill=0;" edge="1" parent="1">
          <mxGeometry width="100" relative="1" as="geometry">
            <mxPoint x="660" y="1654.9299999999998" as="sourcePoint" />
            <mxPoint x="670" y="1654.9299999999998" as="targetPoint" />
          </mxGeometry>
        </mxCell>
        <mxCell id="MhXaQet65GjrmybWfvae-77" value="" style="endArrow=open;html=1;strokeWidth=1;endSize=11;rounded=0;endFill=0;" edge="1" parent="1">
          <mxGeometry width="100" relative="1" as="geometry">
            <mxPoint x="660" y="1624.9299999999998" as="sourcePoint" />
            <mxPoint x="670" y="1624.9299999999998" as="targetPoint" />
          </mxGeometry>
        </mxCell>
        <mxCell id="MhXaQet65GjrmybWfvae-78" value="&lt;font style=&quot;font-size: 16px;&quot;&gt;\((x + y)\overline{(x y)}\)&lt;/font&gt;" style="text;html=1;strokeColor=none;fillColor=none;align=center;verticalAlign=middle;whiteSpace=wrap;rounded=0;spacingTop=0;spacing=0;" vertex="1" parent="1">
          <mxGeometry x="600" y="1550" width="110" height="30" as="geometry" />
        </mxCell>
        <mxCell id="MhXaQet65GjrmybWfvae-79" value="&lt;span style=&quot;font-size: 16px;&quot;&gt;\(xy\)&lt;/span&gt;" style="text;html=1;strokeColor=none;fillColor=none;align=center;verticalAlign=middle;whiteSpace=wrap;rounded=0;" vertex="1" parent="1">
          <mxGeometry x="780" y="1650" width="40" height="30" as="geometry" />
        </mxCell>
        <mxCell id="MhXaQet65GjrmybWfvae-80" value="&lt;font style=&quot;font-size: 14px;&quot;&gt;\[&lt;br&gt;\begin{align*}&lt;br&gt;&amp;nbsp; s&amp;nbsp;=&amp;nbsp;&amp;nbsp;\left( c_i + \left((x+y) \overline{(x\,y)}\right) \right)&amp;nbsp;&lt;br style=&quot;border-color: var(--border-color);&quot;&gt;&amp;nbsp; &amp;nbsp; &amp;nbsp; &amp;nbsp; &amp;nbsp; &amp;nbsp;\overline{\left( c_i \,\left((x+y)&amp;nbsp; \overline{(x\,y)}\right)\right)}&amp;nbsp;&lt;br style=&quot;border-color: var(--border-color);&quot;&gt;\end{align*}&lt;br&gt;\]&lt;br&gt;&lt;/font&gt;" style="text;html=1;strokeColor=none;fillColor=none;align=left;verticalAlign=middle;whiteSpace=wrap;rounded=0;spacing=0;spacingTop=24;" vertex="1" parent="1">
          <mxGeometry x="990" y="1470" width="380" height="60" as="geometry" />
        </mxCell>
        <mxCell id="MhXaQet65GjrmybWfvae-81" value="&lt;font style=&quot;font-size: 14px;&quot;&gt;\[&lt;br&gt;\begin{align*}&lt;br&gt;&amp;nbsp; c_{i+1} =&amp;nbsp;xy + (x + y) \overline{(x\,y)} c_i&lt;br&gt;\end{align*}&lt;br&gt;\]&lt;br&gt;&amp;nbsp; &amp;nbsp;&lt;br&gt;&lt;/font&gt;" style="text;html=1;strokeColor=none;fillColor=none;align=left;verticalAlign=middle;rounded=0;spacing=0;whiteSpace=wrap;spacingTop=24;" vertex="1" parent="1">
          <mxGeometry x="1030" y="1650" width="320" height="40" as="geometry" />
        </mxCell>
        <mxCell id="MhXaQet65GjrmybWfvae-111" style="edgeStyle=orthogonalEdgeStyle;rounded=0;orthogonalLoop=1;jettySize=auto;html=1;exitX=1;exitY=0.75;exitDx=0;exitDy=0;endArrow=none;endFill=0;" edge="1" parent="1" source="MhXaQet65GjrmybWfvae-82">
          <mxGeometry relative="1" as="geometry">
            <mxPoint x="890" y="1625" as="targetPoint" />
            <Array as="points">
              <mxPoint x="880" y="1565" />
              <mxPoint x="880" y="1625" />
            </Array>
          </mxGeometry>
        </mxCell>
        <mxCell id="MhXaQet65GjrmybWfvae-115" style="edgeStyle=orthogonalEdgeStyle;rounded=0;orthogonalLoop=1;jettySize=auto;html=1;exitX=1;exitY=0.25;exitDx=0;exitDy=0;endArrow=none;endFill=0;" edge="1" parent="1" source="MhXaQet65GjrmybWfvae-82">
          <mxGeometry relative="1" as="geometry">
            <mxPoint x="1080" y="1535.0232558139535" as="targetPoint" />
          </mxGeometry>
        </mxCell>
        <mxCell id="MhXaQet65GjrmybWfvae-82" value="&lt;font style=&quot;font-size: 16px;&quot;&gt;Half Adder&lt;/font&gt;" style="rounded=0;whiteSpace=wrap;html=1;" vertex="1" parent="1">
          <mxGeometry x="780" y="1520" width="60" height="60" as="geometry" />
        </mxCell>
        <mxCell id="MhXaQet65GjrmybWfvae-85" style="edgeStyle=orthogonalEdgeStyle;rounded=0;orthogonalLoop=1;jettySize=auto;html=1;endArrow=none;endFill=0;exitX=0;exitY=0.25;exitDx=0;exitDy=0;" edge="1" parent="1">
          <mxGeometry relative="1" as="geometry">
            <mxPoint x="730" y="1534.92" as="targetPoint" />
            <mxPoint x="780" y="1534.92" as="sourcePoint" />
            <Array as="points" />
          </mxGeometry>
        </mxCell>
        <mxCell id="MhXaQet65GjrmybWfvae-86" style="edgeStyle=orthogonalEdgeStyle;rounded=0;orthogonalLoop=1;jettySize=auto;html=1;endArrow=none;endFill=0;exitX=0;exitY=0.75;exitDx=0;exitDy=0;" edge="1" parent="1">
          <mxGeometry relative="1" as="geometry">
            <mxPoint x="710" y="1565" as="targetPoint" />
            <mxPoint x="780" y="1564.92" as="sourcePoint" />
            <Array as="points">
              <mxPoint x="746" y="1565" />
              <mxPoint x="710" y="1565" />
            </Array>
          </mxGeometry>
        </mxCell>
        <mxCell id="MhXaQet65GjrmybWfvae-87" value="" style="endArrow=open;html=1;strokeWidth=1;endSize=11;rounded=0;endFill=0;" edge="1" parent="1">
          <mxGeometry width="100" relative="1" as="geometry">
            <mxPoint x="750" y="1564.92" as="sourcePoint" />
            <mxPoint x="760" y="1564.92" as="targetPoint" />
          </mxGeometry>
        </mxCell>
        <mxCell id="MhXaQet65GjrmybWfvae-88" value="" style="endArrow=open;html=1;strokeWidth=1;endSize=11;rounded=0;endFill=0;" edge="1" parent="1">
          <mxGeometry width="100" relative="1" as="geometry">
            <mxPoint x="750" y="1534.92" as="sourcePoint" />
            <mxPoint x="760" y="1534.92" as="targetPoint" />
          </mxGeometry>
        </mxCell>
        <mxCell id="MhXaQet65GjrmybWfvae-92" style="edgeStyle=orthogonalEdgeStyle;rounded=0;orthogonalLoop=1;jettySize=auto;html=1;endArrow=none;endFill=0;" edge="1" parent="1">
          <mxGeometry relative="1" as="geometry">
            <mxPoint x="530" y="1535" as="targetPoint" />
            <mxPoint x="730" y="1535" as="sourcePoint" />
            <Array as="points">
              <mxPoint x="682" y="1535" />
              <mxPoint x="682" y="1535" />
            </Array>
          </mxGeometry>
        </mxCell>
        <mxCell id="MhXaQet65GjrmybWfvae-94" value="&lt;font style=&quot;font-size: 16px;&quot;&gt;\(c_i\)&lt;/font&gt;" style="text;html=1;strokeColor=none;fillColor=none;align=center;verticalAlign=middle;whiteSpace=wrap;rounded=0;" vertex="1" parent="1">
          <mxGeometry x="500" y="1520" width="30" height="30" as="geometry" />
        </mxCell>
        <mxCell id="MhXaQet65GjrmybWfvae-100" style="edgeStyle=orthogonalEdgeStyle;rounded=0;orthogonalLoop=1;jettySize=auto;html=1;exitX=0;exitY=0.25;exitDx=0;exitDy=0;exitPerimeter=0;endArrow=none;endFill=0;" edge="1" source="MhXaQet65GjrmybWfvae-103" parent="1">
          <mxGeometry relative="1" as="geometry">
            <mxPoint x="880" y="1625.0344827586207" as="targetPoint" />
          </mxGeometry>
        </mxCell>
        <mxCell id="MhXaQet65GjrmybWfvae-101" style="edgeStyle=orthogonalEdgeStyle;rounded=0;orthogonalLoop=1;jettySize=auto;html=1;exitX=0;exitY=0.75;exitDx=0;exitDy=0;exitPerimeter=0;endArrow=none;endFill=0;" edge="1" source="MhXaQet65GjrmybWfvae-103" parent="1">
          <mxGeometry relative="1" as="geometry">
            <mxPoint x="690" y="1655" as="targetPoint" />
          </mxGeometry>
        </mxCell>
        <mxCell id="MhXaQet65GjrmybWfvae-102" style="edgeStyle=orthogonalEdgeStyle;rounded=0;orthogonalLoop=1;jettySize=auto;html=1;exitX=1;exitY=0.5;exitDx=0;exitDy=0;exitPerimeter=0;endArrow=none;endFill=0;" edge="1" source="MhXaQet65GjrmybWfvae-103" parent="1">
          <mxGeometry relative="1" as="geometry">
            <mxPoint x="1080" y="1639.9444444444443" as="targetPoint" />
          </mxGeometry>
        </mxCell>
        <mxCell id="MhXaQet65GjrmybWfvae-103" value="" style="verticalLabelPosition=bottom;shadow=0;dashed=0;align=center;html=1;verticalAlign=top;shape=mxgraph.electrical.logic_gates.logic_gate;operation=or;" vertex="1" parent="1">
          <mxGeometry x="930" y="1610" width="100" height="60" as="geometry" />
        </mxCell>
        <mxCell id="MhXaQet65GjrmybWfvae-104" value="" style="endArrow=open;html=1;strokeWidth=1;endSize=11;rounded=0;endFill=0;" edge="1" parent="1">
          <mxGeometry width="100" relative="1" as="geometry">
            <mxPoint x="910" y="1625" as="sourcePoint" />
            <mxPoint x="920" y="1625" as="targetPoint" />
          </mxGeometry>
        </mxCell>
        <mxCell id="MhXaQet65GjrmybWfvae-105" value="" style="endArrow=open;html=1;strokeWidth=1;endSize=11;rounded=0;endFill=0;" edge="1" parent="1">
          <mxGeometry width="100" relative="1" as="geometry">
            <mxPoint x="910" y="1655" as="sourcePoint" />
            <mxPoint x="920" y="1655" as="targetPoint" />
          </mxGeometry>
        </mxCell>
        <mxCell id="MhXaQet65GjrmybWfvae-106" value="" style="endArrow=open;html=1;strokeWidth=1;endSize=11;rounded=0;endFill=0;" edge="1" parent="1">
          <mxGeometry width="100" relative="1" as="geometry">
            <mxPoint x="1040" y="1639.93" as="sourcePoint" />
            <mxPoint x="1050" y="1639.93" as="targetPoint" />
          </mxGeometry>
        </mxCell>
        <mxCell id="MhXaQet65GjrmybWfvae-113" value="" style="endArrow=open;html=1;strokeWidth=1;endSize=11;rounded=0;endFill=0;" edge="1" parent="1">
          <mxGeometry width="100" relative="1" as="geometry">
            <mxPoint x="1040" y="1534.97" as="sourcePoint" />
            <mxPoint x="1050" y="1534.97" as="targetPoint" />
          </mxGeometry>
        </mxCell>
        <mxCell id="MhXaQet65GjrmybWfvae-116" value="&lt;font style=&quot;font-size: 16px;&quot;&gt;\((x + y)\overline{(x y)} c_i\)&lt;/font&gt;" style="text;html=1;strokeColor=none;fillColor=none;align=center;verticalAlign=middle;whiteSpace=wrap;rounded=0;spacingTop=0;spacing=0;" vertex="1" parent="1">
          <mxGeometry x="880" y="1550" width="140" height="30" as="geometry" />
        </mxCell>
        <mxCell id="MhXaQet65GjrmybWfvae-117" value="&lt;font style=&quot;font-size: 16px;&quot;&gt;Full Adder&lt;/font&gt;" style="rounded=0;whiteSpace=wrap;html=1;" vertex="1" parent="1">
          <mxGeometry x="580" y="1750" width="60" height="90" as="geometry" />
        </mxCell>
        <mxCell id="MhXaQet65GjrmybWfvae-118" style="edgeStyle=orthogonalEdgeStyle;rounded=0;orthogonalLoop=1;jettySize=auto;html=1;endArrow=none;endFill=0;exitX=0;exitY=0.25;exitDx=0;exitDy=0;" edge="1" parent="1">
          <mxGeometry relative="1" as="geometry">
            <mxPoint x="530" y="1795" as="targetPoint" />
            <mxPoint x="580" y="1795" as="sourcePoint" />
            <Array as="points" />
          </mxGeometry>
        </mxCell>
        <mxCell id="MhXaQet65GjrmybWfvae-119" style="edgeStyle=orthogonalEdgeStyle;rounded=0;orthogonalLoop=1;jettySize=auto;html=1;endArrow=none;endFill=0;exitX=0;exitY=0.75;exitDx=0;exitDy=0;" edge="1" parent="1">
          <mxGeometry relative="1" as="geometry">
            <mxPoint x="530" y="1825" as="targetPoint" />
            <mxPoint x="580" y="1825" as="sourcePoint" />
            <Array as="points" />
          </mxGeometry>
        </mxCell>
        <mxCell id="MhXaQet65GjrmybWfvae-120" value="&lt;font style=&quot;font-size: 16px;&quot;&gt;\(x\)&lt;/font&gt;" style="text;html=1;strokeColor=none;fillColor=none;align=center;verticalAlign=middle;whiteSpace=wrap;rounded=0;" vertex="1" parent="1">
          <mxGeometry x="500" y="1780" width="30" height="30" as="geometry" />
        </mxCell>
        <mxCell id="MhXaQet65GjrmybWfvae-121" value="&lt;font style=&quot;font-size: 16px;&quot;&gt;\(y\)&lt;/font&gt;" style="text;html=1;strokeColor=none;fillColor=none;align=center;verticalAlign=middle;whiteSpace=wrap;rounded=0;" vertex="1" parent="1">
          <mxGeometry x="500" y="1810" width="30" height="30" as="geometry" />
        </mxCell>
        <mxCell id="MhXaQet65GjrmybWfvae-122" value="" style="endArrow=open;html=1;strokeWidth=1;endSize=11;rounded=0;endFill=0;" edge="1" parent="1">
          <mxGeometry width="100" relative="1" as="geometry">
            <mxPoint x="550" y="1825" as="sourcePoint" />
            <mxPoint x="560" y="1825" as="targetPoint" />
          </mxGeometry>
        </mxCell>
        <mxCell id="MhXaQet65GjrmybWfvae-123" value="" style="endArrow=open;html=1;strokeWidth=1;endSize=11;rounded=0;endFill=0;" edge="1" parent="1">
          <mxGeometry width="100" relative="1" as="geometry">
            <mxPoint x="550" y="1795" as="sourcePoint" />
            <mxPoint x="560" y="1795" as="targetPoint" />
          </mxGeometry>
        </mxCell>
        <mxCell id="MhXaQet65GjrmybWfvae-126" style="edgeStyle=orthogonalEdgeStyle;rounded=0;orthogonalLoop=1;jettySize=auto;html=1;endArrow=none;endFill=0;exitX=0;exitY=0.25;exitDx=0;exitDy=0;" edge="1" parent="1">
          <mxGeometry relative="1" as="geometry">
            <mxPoint x="530" y="1765" as="targetPoint" />
            <mxPoint x="580" y="1765" as="sourcePoint" />
            <Array as="points" />
          </mxGeometry>
        </mxCell>
        <mxCell id="MhXaQet65GjrmybWfvae-127" value="&lt;font style=&quot;font-size: 16px;&quot;&gt;\(c_i\)&lt;/font&gt;" style="text;html=1;strokeColor=none;fillColor=none;align=center;verticalAlign=middle;whiteSpace=wrap;rounded=0;" vertex="1" parent="1">
          <mxGeometry x="500" y="1750" width="30" height="30" as="geometry" />
        </mxCell>
        <mxCell id="MhXaQet65GjrmybWfvae-128" value="" style="endArrow=open;html=1;strokeWidth=1;endSize=11;rounded=0;endFill=0;" edge="1" parent="1">
          <mxGeometry width="100" relative="1" as="geometry">
            <mxPoint x="550" y="1765" as="sourcePoint" />
            <mxPoint x="560" y="1765" as="targetPoint" />
          </mxGeometry>
        </mxCell>
        <mxCell id="MhXaQet65GjrmybWfvae-130" style="edgeStyle=orthogonalEdgeStyle;rounded=0;orthogonalLoop=1;jettySize=auto;html=1;endArrow=none;endFill=0;exitX=0;exitY=0.75;exitDx=0;exitDy=0;" edge="1" parent="1">
          <mxGeometry relative="1" as="geometry">
            <mxPoint x="640" y="1824.8" as="targetPoint" />
            <mxPoint x="690" y="1824.8" as="sourcePoint" />
            <Array as="points" />
          </mxGeometry>
        </mxCell>
        <mxCell id="MhXaQet65GjrmybWfvae-131" value="" style="endArrow=open;html=1;strokeWidth=1;endSize=11;rounded=0;endFill=0;" edge="1" parent="1">
          <mxGeometry width="100" relative="1" as="geometry">
            <mxPoint x="660" y="1824.8" as="sourcePoint" />
            <mxPoint x="670" y="1824.8" as="targetPoint" />
          </mxGeometry>
        </mxCell>
        <mxCell id="MhXaQet65GjrmybWfvae-133" style="edgeStyle=orthogonalEdgeStyle;rounded=0;orthogonalLoop=1;jettySize=auto;html=1;endArrow=none;endFill=0;exitX=0;exitY=0.25;exitDx=0;exitDy=0;" edge="1" parent="1">
          <mxGeometry relative="1" as="geometry">
            <mxPoint x="640" y="1764.8" as="targetPoint" />
            <mxPoint x="690" y="1764.8" as="sourcePoint" />
            <Array as="points" />
          </mxGeometry>
        </mxCell>
        <mxCell id="MhXaQet65GjrmybWfvae-134" value="" style="endArrow=open;html=1;strokeWidth=1;endSize=11;rounded=0;endFill=0;" edge="1" parent="1">
          <mxGeometry width="100" relative="1" as="geometry">
            <mxPoint x="660" y="1764.8" as="sourcePoint" />
            <mxPoint x="670" y="1764.8" as="targetPoint" />
          </mxGeometry>
        </mxCell>
        <mxCell id="MhXaQet65GjrmybWfvae-135" value="&lt;font style=&quot;font-size: 16px;&quot;&gt;\(s\)&lt;/font&gt;" style="text;html=1;strokeColor=none;fillColor=none;align=center;verticalAlign=middle;whiteSpace=wrap;rounded=0;" vertex="1" parent="1">
          <mxGeometry x="690" y="1750" width="30" height="30" as="geometry" />
        </mxCell>
        <mxCell id="MhXaQet65GjrmybWfvae-136" value="&lt;font style=&quot;font-size: 16px;&quot;&gt;\(c_{i+1}\)&lt;/font&gt;" style="text;html=1;strokeColor=none;fillColor=none;align=center;verticalAlign=middle;whiteSpace=wrap;rounded=0;" vertex="1" parent="1">
          <mxGeometry x="690" y="1810" width="50" height="30" as="geometry" />
        </mxCell>
        <mxCell id="MhXaQet65GjrmybWfvae-190" style="edgeStyle=orthogonalEdgeStyle;rounded=0;orthogonalLoop=1;jettySize=auto;html=1;exitX=1;exitY=0.25;exitDx=0;exitDy=0;endArrow=none;endFill=0;" edge="1" parent="1" source="MhXaQet65GjrmybWfvae-146">
          <mxGeometry relative="1" as="geometry">
            <mxPoint x="650" y="1955.0289855072465" as="targetPoint" />
          </mxGeometry>
        </mxCell>
        <mxCell id="MhXaQet65GjrmybWfvae-146" value="&lt;font style=&quot;font-size: 16px;&quot;&gt;Half Adder&lt;/font&gt;" style="rounded=0;whiteSpace=wrap;html=1;" vertex="1" parent="1">
          <mxGeometry x="260" y="1940" width="60" height="60" as="geometry" />
        </mxCell>
        <mxCell id="MhXaQet65GjrmybWfvae-147" style="edgeStyle=orthogonalEdgeStyle;rounded=0;orthogonalLoop=1;jettySize=auto;html=1;endArrow=none;endFill=0;exitX=0;exitY=0.25;exitDx=0;exitDy=0;" edge="1" source="MhXaQet65GjrmybWfvae-146" parent="1">
          <mxGeometry relative="1" as="geometry">
            <mxPoint x="210" y="1955" as="targetPoint" />
            <mxPoint x="250" y="1955" as="sourcePoint" />
            <Array as="points" />
          </mxGeometry>
        </mxCell>
        <mxCell id="MhXaQet65GjrmybWfvae-148" style="edgeStyle=orthogonalEdgeStyle;rounded=0;orthogonalLoop=1;jettySize=auto;html=1;endArrow=none;endFill=0;exitX=0;exitY=0.75;exitDx=0;exitDy=0;" edge="1" source="MhXaQet65GjrmybWfvae-146" parent="1">
          <mxGeometry relative="1" as="geometry">
            <mxPoint x="210" y="1985" as="targetPoint" />
            <mxPoint x="250" y="1985" as="sourcePoint" />
            <Array as="points" />
          </mxGeometry>
        </mxCell>
        <mxCell id="MhXaQet65GjrmybWfvae-149" value="&lt;font style=&quot;font-size: 16px;&quot;&gt;\(x_0\)&lt;/font&gt;" style="text;html=1;strokeColor=none;fillColor=none;align=center;verticalAlign=middle;whiteSpace=wrap;rounded=0;" vertex="1" parent="1">
          <mxGeometry x="180" y="1940" width="30" height="30" as="geometry" />
        </mxCell>
        <mxCell id="MhXaQet65GjrmybWfvae-150" value="&lt;font style=&quot;font-size: 16px;&quot;&gt;\(y_0\)&lt;/font&gt;" style="text;html=1;strokeColor=none;fillColor=none;align=center;verticalAlign=middle;whiteSpace=wrap;rounded=0;" vertex="1" parent="1">
          <mxGeometry x="180" y="1970" width="30" height="30" as="geometry" />
        </mxCell>
        <mxCell id="MhXaQet65GjrmybWfvae-151" value="" style="endArrow=open;html=1;strokeWidth=1;endSize=11;rounded=0;endFill=0;" edge="1" parent="1">
          <mxGeometry width="100" relative="1" as="geometry">
            <mxPoint x="230" y="1985" as="sourcePoint" />
            <mxPoint x="240" y="1985" as="targetPoint" />
          </mxGeometry>
        </mxCell>
        <mxCell id="MhXaQet65GjrmybWfvae-152" value="" style="endArrow=open;html=1;strokeWidth=1;endSize=11;rounded=0;endFill=0;" edge="1" parent="1">
          <mxGeometry width="100" relative="1" as="geometry">
            <mxPoint x="230" y="1955" as="sourcePoint" />
            <mxPoint x="240" y="1955" as="targetPoint" />
          </mxGeometry>
        </mxCell>
        <mxCell id="MhXaQet65GjrmybWfvae-154" style="edgeStyle=orthogonalEdgeStyle;rounded=0;orthogonalLoop=1;jettySize=auto;html=1;endArrow=none;endFill=0;entryX=1;entryY=0.75;entryDx=0;entryDy=0;" edge="1" parent="1" target="MhXaQet65GjrmybWfvae-146">
          <mxGeometry relative="1" as="geometry">
            <mxPoint x="320" y="1984.9299999999998" as="targetPoint" />
            <mxPoint x="400" y="1985" as="sourcePoint" />
            <Array as="points">
              <mxPoint x="360" y="1985" />
              <mxPoint x="360" y="1985" />
            </Array>
          </mxGeometry>
        </mxCell>
        <mxCell id="MhXaQet65GjrmybWfvae-155" value="" style="endArrow=open;html=1;strokeWidth=1;endSize=11;rounded=0;endFill=0;" edge="1" parent="1">
          <mxGeometry width="100" relative="1" as="geometry">
            <mxPoint x="340" y="1984.9299999999998" as="sourcePoint" />
            <mxPoint x="350" y="1984.9299999999998" as="targetPoint" />
          </mxGeometry>
        </mxCell>
        <mxCell id="MhXaQet65GjrmybWfvae-156" value="" style="endArrow=open;html=1;strokeWidth=1;endSize=11;rounded=0;endFill=0;" edge="1" parent="1">
          <mxGeometry width="100" relative="1" as="geometry">
            <mxPoint x="340" y="1954.9299999999998" as="sourcePoint" />
            <mxPoint x="350" y="1954.9299999999998" as="targetPoint" />
          </mxGeometry>
        </mxCell>
        <mxCell id="MhXaQet65GjrmybWfvae-159" value="&lt;font style=&quot;font-size: 16px;&quot;&gt;Full Adder&lt;/font&gt;" style="rounded=0;whiteSpace=wrap;html=1;" vertex="1" parent="1">
          <mxGeometry x="400" y="1970" width="60" height="90" as="geometry" />
        </mxCell>
        <mxCell id="MhXaQet65GjrmybWfvae-160" style="edgeStyle=orthogonalEdgeStyle;rounded=0;orthogonalLoop=1;jettySize=auto;html=1;endArrow=none;endFill=0;exitX=0;exitY=0.25;exitDx=0;exitDy=0;entryX=1;entryY=0.5;entryDx=0;entryDy=0;" edge="1" parent="1" target="MhXaQet65GjrmybWfvae-162">
          <mxGeometry relative="1" as="geometry">
            <mxPoint x="350" y="2015" as="targetPoint" />
            <mxPoint x="400" y="2015" as="sourcePoint" />
            <Array as="points">
              <mxPoint x="305" y="2015" />
              <mxPoint x="305" y="2015" />
            </Array>
          </mxGeometry>
        </mxCell>
        <mxCell id="MhXaQet65GjrmybWfvae-161" style="edgeStyle=orthogonalEdgeStyle;rounded=0;orthogonalLoop=1;jettySize=auto;html=1;endArrow=none;endFill=0;exitX=0;exitY=0.75;exitDx=0;exitDy=0;" edge="1" parent="1">
          <mxGeometry relative="1" as="geometry">
            <mxPoint x="210" y="2045" as="targetPoint" />
            <mxPoint x="400" y="2045" as="sourcePoint" />
            <Array as="points" />
          </mxGeometry>
        </mxCell>
        <mxCell id="MhXaQet65GjrmybWfvae-162" value="&lt;font style=&quot;font-size: 16px;&quot;&gt;\(x_1\)&lt;/font&gt;" style="text;html=1;strokeColor=none;fillColor=none;align=center;verticalAlign=middle;whiteSpace=wrap;rounded=0;" vertex="1" parent="1">
          <mxGeometry x="180" y="2000" width="30" height="30" as="geometry" />
        </mxCell>
        <mxCell id="MhXaQet65GjrmybWfvae-163" value="&lt;font style=&quot;font-size: 16px;&quot;&gt;\(y_1\)&lt;/font&gt;" style="text;html=1;strokeColor=none;fillColor=none;align=center;verticalAlign=middle;whiteSpace=wrap;rounded=0;" vertex="1" parent="1">
          <mxGeometry x="180" y="2030" width="30" height="30" as="geometry" />
        </mxCell>
        <mxCell id="MhXaQet65GjrmybWfvae-164" value="" style="endArrow=open;html=1;strokeWidth=1;endSize=11;rounded=0;endFill=0;" edge="1" parent="1">
          <mxGeometry width="100" relative="1" as="geometry">
            <mxPoint x="370" y="2045" as="sourcePoint" />
            <mxPoint x="380" y="2045" as="targetPoint" />
          </mxGeometry>
        </mxCell>
        <mxCell id="MhXaQet65GjrmybWfvae-165" value="" style="endArrow=open;html=1;strokeWidth=1;endSize=11;rounded=0;endFill=0;" edge="1" parent="1">
          <mxGeometry width="100" relative="1" as="geometry">
            <mxPoint x="370" y="2015" as="sourcePoint" />
            <mxPoint x="380" y="2015" as="targetPoint" />
          </mxGeometry>
        </mxCell>
        <mxCell id="MhXaQet65GjrmybWfvae-169" style="edgeStyle=orthogonalEdgeStyle;rounded=0;orthogonalLoop=1;jettySize=auto;html=1;endArrow=none;endFill=0;exitX=0.002;exitY=0.159;exitDx=0;exitDy=0;exitPerimeter=0;" edge="1" parent="1" source="MhXaQet65GjrmybWfvae-177">
          <mxGeometry relative="1" as="geometry">
            <mxPoint x="460" y="2044.8" as="targetPoint" />
            <mxPoint x="510" y="2044.8" as="sourcePoint" />
            <Array as="points">
              <mxPoint x="460" y="2044" />
            </Array>
          </mxGeometry>
        </mxCell>
        <mxCell id="MhXaQet65GjrmybWfvae-170" value="" style="endArrow=open;html=1;strokeWidth=1;endSize=11;rounded=0;endFill=0;" edge="1" parent="1">
          <mxGeometry width="100" relative="1" as="geometry">
            <mxPoint x="480" y="2044.8" as="sourcePoint" />
            <mxPoint x="490" y="2044.8" as="targetPoint" />
          </mxGeometry>
        </mxCell>
        <mxCell id="MhXaQet65GjrmybWfvae-171" style="edgeStyle=orthogonalEdgeStyle;rounded=0;orthogonalLoop=1;jettySize=auto;html=1;endArrow=none;endFill=0;exitX=0;exitY=0.5;exitDx=0;exitDy=0;" edge="1" parent="1" source="MhXaQet65GjrmybWfvae-173">
          <mxGeometry relative="1" as="geometry">
            <mxPoint x="460" y="1984.8" as="targetPoint" />
            <mxPoint x="650" y="1980" as="sourcePoint" />
            <Array as="points" />
          </mxGeometry>
        </mxCell>
        <mxCell id="MhXaQet65GjrmybWfvae-172" value="" style="endArrow=open;html=1;strokeWidth=1;endSize=11;rounded=0;endFill=0;" edge="1" parent="1">
          <mxGeometry width="100" relative="1" as="geometry">
            <mxPoint x="480" y="1984.8" as="sourcePoint" />
            <mxPoint x="490" y="1984.8" as="targetPoint" />
          </mxGeometry>
        </mxCell>
        <mxCell id="MhXaQet65GjrmybWfvae-173" value="&lt;font style=&quot;font-size: 16px;&quot;&gt;\(s_1\)&lt;/font&gt;" style="text;html=1;strokeColor=none;fillColor=none;align=center;verticalAlign=middle;whiteSpace=wrap;rounded=0;" vertex="1" parent="1">
          <mxGeometry x="650" y="1970" width="30" height="30" as="geometry" />
        </mxCell>
        <mxCell id="MhXaQet65GjrmybWfvae-174" value="&lt;font style=&quot;font-size: 16px;&quot;&gt;\(c_1\)&lt;/font&gt;" style="text;html=1;strokeColor=none;fillColor=none;align=center;verticalAlign=middle;whiteSpace=wrap;rounded=0;" vertex="1" parent="1">
          <mxGeometry x="480" y="2020" width="30" height="20" as="geometry" />
        </mxCell>
        <mxCell id="MhXaQet65GjrmybWfvae-177" value="&lt;font style=&quot;font-size: 16px;&quot;&gt;Full Adder&lt;/font&gt;" style="rounded=0;whiteSpace=wrap;html=1;" vertex="1" parent="1">
          <mxGeometry x="540" y="2030" width="60" height="90" as="geometry" />
        </mxCell>
        <mxCell id="MhXaQet65GjrmybWfvae-178" style="edgeStyle=orthogonalEdgeStyle;rounded=0;orthogonalLoop=1;jettySize=auto;html=1;endArrow=none;endFill=0;exitX=0;exitY=0.25;exitDx=0;exitDy=0;" edge="1" parent="1">
          <mxGeometry relative="1" as="geometry">
            <mxPoint x="210" y="2075" as="targetPoint" />
            <mxPoint x="540" y="2075" as="sourcePoint" />
            <Array as="points" />
          </mxGeometry>
        </mxCell>
        <mxCell id="MhXaQet65GjrmybWfvae-179" style="edgeStyle=orthogonalEdgeStyle;rounded=0;orthogonalLoop=1;jettySize=auto;html=1;endArrow=none;endFill=0;exitX=0;exitY=0.75;exitDx=0;exitDy=0;" edge="1" parent="1">
          <mxGeometry relative="1" as="geometry">
            <mxPoint x="210" y="2105" as="targetPoint" />
            <mxPoint x="540" y="2105" as="sourcePoint" />
            <Array as="points" />
          </mxGeometry>
        </mxCell>
        <mxCell id="MhXaQet65GjrmybWfvae-180" value="&lt;font style=&quot;font-size: 16px;&quot;&gt;\(x_2\)&lt;/font&gt;" style="text;html=1;strokeColor=none;fillColor=none;align=center;verticalAlign=middle;whiteSpace=wrap;rounded=0;" vertex="1" parent="1">
          <mxGeometry x="180" y="2060" width="30" height="30" as="geometry" />
        </mxCell>
        <mxCell id="MhXaQet65GjrmybWfvae-181" value="&lt;font style=&quot;font-size: 16px;&quot;&gt;\(y_2\)&lt;/font&gt;" style="text;html=1;strokeColor=none;fillColor=none;align=center;verticalAlign=middle;whiteSpace=wrap;rounded=0;" vertex="1" parent="1">
          <mxGeometry x="180" y="2090" width="30" height="30" as="geometry" />
        </mxCell>
        <mxCell id="MhXaQet65GjrmybWfvae-182" value="" style="endArrow=open;html=1;strokeWidth=1;endSize=11;rounded=0;endFill=0;" edge="1" parent="1">
          <mxGeometry width="100" relative="1" as="geometry">
            <mxPoint x="510" y="2105" as="sourcePoint" />
            <mxPoint x="520" y="2105" as="targetPoint" />
          </mxGeometry>
        </mxCell>
        <mxCell id="MhXaQet65GjrmybWfvae-183" value="" style="endArrow=open;html=1;strokeWidth=1;endSize=11;rounded=0;endFill=0;" edge="1" parent="1">
          <mxGeometry width="100" relative="1" as="geometry">
            <mxPoint x="510" y="2075" as="sourcePoint" />
            <mxPoint x="520" y="2075" as="targetPoint" />
          </mxGeometry>
        </mxCell>
        <mxCell id="MhXaQet65GjrmybWfvae-184" style="edgeStyle=orthogonalEdgeStyle;rounded=0;orthogonalLoop=1;jettySize=auto;html=1;endArrow=none;endFill=0;exitX=0;exitY=0.75;exitDx=0;exitDy=0;" edge="1" parent="1">
          <mxGeometry relative="1" as="geometry">
            <mxPoint x="600" y="2104.8" as="targetPoint" />
            <mxPoint x="650" y="2104.8" as="sourcePoint" />
            <Array as="points" />
          </mxGeometry>
        </mxCell>
        <mxCell id="MhXaQet65GjrmybWfvae-185" value="" style="endArrow=open;html=1;strokeWidth=1;endSize=11;rounded=0;endFill=0;" edge="1" parent="1">
          <mxGeometry width="100" relative="1" as="geometry">
            <mxPoint x="620" y="2104.8" as="sourcePoint" />
            <mxPoint x="630" y="2104.8" as="targetPoint" />
          </mxGeometry>
        </mxCell>
        <mxCell id="MhXaQet65GjrmybWfvae-186" style="edgeStyle=orthogonalEdgeStyle;rounded=0;orthogonalLoop=1;jettySize=auto;html=1;endArrow=none;endFill=0;exitX=0;exitY=0.25;exitDx=0;exitDy=0;" edge="1" parent="1">
          <mxGeometry relative="1" as="geometry">
            <mxPoint x="600" y="2044.8000000000002" as="targetPoint" />
            <mxPoint x="650" y="2044.8000000000002" as="sourcePoint" />
            <Array as="points" />
          </mxGeometry>
        </mxCell>
        <mxCell id="MhXaQet65GjrmybWfvae-187" value="" style="endArrow=open;html=1;strokeWidth=1;endSize=11;rounded=0;endFill=0;" edge="1" parent="1">
          <mxGeometry width="100" relative="1" as="geometry">
            <mxPoint x="620" y="2044.8000000000002" as="sourcePoint" />
            <mxPoint x="630" y="2044.8000000000002" as="targetPoint" />
          </mxGeometry>
        </mxCell>
        <mxCell id="MhXaQet65GjrmybWfvae-188" value="&lt;font style=&quot;font-size: 16px;&quot;&gt;\(s_2\)&lt;/font&gt;" style="text;html=1;strokeColor=none;fillColor=none;align=center;verticalAlign=middle;whiteSpace=wrap;rounded=0;" vertex="1" parent="1">
          <mxGeometry x="650" y="2030" width="30" height="30" as="geometry" />
        </mxCell>
        <mxCell id="MhXaQet65GjrmybWfvae-189" value="&lt;font style=&quot;font-size: 16px;&quot;&gt;\(c_2 = s_3\)&lt;/font&gt;" style="text;html=1;strokeColor=none;fillColor=none;align=center;verticalAlign=middle;whiteSpace=wrap;rounded=0;" vertex="1" parent="1">
          <mxGeometry x="650" y="2090" width="80" height="30" as="geometry" />
        </mxCell>
        <mxCell id="MhXaQet65GjrmybWfvae-191" value="&lt;font style=&quot;font-size: 16px;&quot;&gt;\(s_0\)&lt;/font&gt;" style="text;html=1;strokeColor=none;fillColor=none;align=center;verticalAlign=middle;whiteSpace=wrap;rounded=0;" vertex="1" parent="1">
          <mxGeometry x="650" y="1940" width="30" height="30" as="geometry" />
        </mxCell>
        <mxCell id="MhXaQet65GjrmybWfvae-192" value="&lt;font style=&quot;font-size: 16px;&quot;&gt;\(c_0\)&lt;/font&gt;" style="text;html=1;strokeColor=none;fillColor=none;align=center;verticalAlign=middle;whiteSpace=wrap;rounded=0;" vertex="1" parent="1">
          <mxGeometry x="345" y="1960" width="30" height="25" as="geometry" />
        </mxCell>
      </root>
    </mxGraphModel>
  </diagram>
</mxfile>
